<svg width="24" height="20" fill="none" xmlns="http://www.w3.org/2000/svg"><path d="M23.319 3.726a44.885 44.885 0 0 0-2.333-.003V.933a.706.706 0 0 0-.765-.703C17.508.457 14.057 1.655 12 3.842 9.943 1.655 6.492.457 3.779.23a.706.706 0 0 0-.765.704v2.865c-.773-.03-1.504-.05-2.287-.073A.706.706 0 0 0 0 4.432v12.855c0 .371.288.679.658.704 2.808.189 7.512.21 11.065 1.726.317.135.601-.02.554 0 3.553-1.516 8.256-1.537 11.065-1.726a.706.706 0 0 0 .658-.704V4.432a.706.706 0 0 0-.681-.706zm-3.745-1.999v12.099c-2.035.455-4.615 1.427-6.868 3.487V5.18c1.544-1.928 4.47-3.09 6.868-3.453zm-15.148 0c2.399.364 5.324 1.525 6.868 3.453v12.133c-2.253-2.06-4.833-3.032-6.868-3.487V1.727zM1.412 16.622V5.158c.505.015 1.046.032 1.602.054v9.19c0 .339.242.63.576.693 1.611.302 3.707.959 5.661 2.373-2.787-.625-5.704-.726-7.84-.846zm21.176 0c-2.131.12-5.05.22-7.839.846 1.954-1.414 4.05-2.07 5.661-2.373a.706.706 0 0 0 .576-.694V5.136c.65-.015 1.203-.015 1.602-.012v11.498z" fill="#000"/></svg>