<svg width="24" height="20" viewBox="0 0 24 20" fill="none" xmlns="http://www.w3.org/2000/svg">
<path d="M23.3187 3.72605C23.2736 3.7245 22.3467 3.6932 20.986 3.72327V0.93353C20.986 0.522283 20.6349 0.196118 20.2214 0.230095C17.5084 0.456589 14.0567 1.65541 12 3.842C9.94334 1.65541 6.49162 0.456589 3.77859 0.230095C3.36588 0.196495 3.01398 0.521201 3.01398 0.93353V3.79871C2.24089 3.76953 1.50965 3.74897 0.726824 3.72595C0.332 3.71348 0 4.03151 0 4.43151V17.2866C0 17.6581 0.287859 17.966 0.658494 17.9908C3.4664 18.1798 8.16988 18.2011 11.7231 19.7166C12.0398 19.8518 12.324 19.6965 12.277 19.7166C15.8301 18.2012 20.5328 18.1799 23.3416 17.9908C23.7122 17.966 24.0001 17.6581 24.0001 17.2866V4.43151C24 4.05122 23.6988 3.73932 23.3187 3.72605ZM19.5743 1.72746V13.8257C17.5387 14.2811 14.959 15.2527 12.7059 17.313C12.7059 16.6916 12.7059 5.5156 12.7059 5.17951C14.2504 3.25245 17.1753 2.09094 19.5743 1.72746ZM4.42574 1.72746C6.82466 2.09094 9.74965 3.25245 11.2941 5.17951V17.313C9.04104 15.2527 6.46132 14.2811 4.42574 13.8257V1.72746ZM1.41176 16.6223V5.15847C1.91722 5.17344 2.45784 5.19033 3.01398 5.21155V14.4011C3.01398 14.7407 3.25586 15.0322 3.58965 15.0948C5.20146 15.3973 7.29746 16.054 9.25097 17.4679C6.46391 16.8428 3.54664 16.7424 1.41176 16.6223ZM22.5882 16.6223C20.4568 16.7422 17.5372 16.8426 14.749 17.4679C16.7025 16.054 18.7985 15.3973 20.4103 15.0948C20.7441 15.0322 20.986 14.7407 20.986 14.4011V5.13551C21.6357 5.12097 22.189 5.12078 22.5882 5.1244V16.6223H22.5882Z" fill="black"/>
</svg>
