<svg width="26" height="22" viewBox="0 0 26 22" fill="none" xmlns="http://www.w3.org/2000/svg">
<path d="M5.87659 6.89956L4.40396 8.37218C5.85368 3.62184 10.8798 0.946219 15.6301 2.39594C17.4405 2.94843 19.0303 4.05806 20.1733 5.56678L21.4766 4.57931C17.9369 -0.100263 11.2738 -1.02439 6.59419 2.51533C4.65457 3.98243 3.27705 6.07059 2.69163 8.43109L1.15683 6.89956L0 8.05557L3.51794 11.5735L7.03587 8.05557L5.87659 6.89956Z" fill="white"/>
<path d="M22.4819 10.4102L18.964 13.9281L20.1208 15.0849L21.6106 13.5959C20.1736 18.3539 15.1517 21.0461 10.3937 19.6091C8.50127 19.0375 6.84968 17.8588 5.69403 16.2548L4.36621 17.2104C6.00721 19.5046 8.49707 21.0478 11.2818 21.4966C11.8526 21.5892 12.4298 21.636 13.0081 21.6365C17.8921 21.6342 22.1439 18.2983 23.3082 13.555L24.8398 15.0849L25.9999 13.9281L22.4819 10.4102ZM22.441 12.7672L22.4827 12.7254L22.5433 12.7868L22.441 12.7672Z" fill="white"/>
</svg>
