<svg width="247" height="247" fill="none" xmlns="http://www.w3.org/2000/svg"><g clip-path="url(#clip0)" fill="#9D1A18"><path d="M95.416 117.934a48.097 48.097 0 1 1 65.614-14.964l-1.628-1.049a46.148 46.148 0 0 0-1.038-51.468 46.15 46.15 0 0 0-83.318 19.005 46.151 46.151 0 0 0 21.385 46.828l-1.015 1.648z"/><path d="M103.258 89.423c0-.648.012-1.174-.022-1.697-.003-.044-.407-.153-.464-.09-.309.347-.086 1.4.486 1.787zm8.786 3.752c-.939-1.122-2.367-.653-3.196.311a.403.403 0 0 0-.045.196.408.408 0 0 0 .057.192 4.7 4.7 0 0 0 1.136.762 1.14 1.14 0 0 0 .974-.064c.402-.43.761-.898 1.074-1.397zm-13.322-3.632c.218.477.49.927.809 1.343.134.142.589-.016.897-.038.155-.02.31-.03.466-.03.487.028.972.086 1.459.1.184-.022.363-.067.534-.137a2.654 2.654 0 0 0-.256-.409 1.316 1.316 0 0 0-1.212-.522.733.733 0 0 1-.849-.582 6.178 6.178 0 0 1-.282-.814c-.086-.553-.478-.507-.704-.265a8.32 8.32 0 0 0-.862 1.354zm38.437-11.951l-.268-.211c-.798.74-1.729 1.38-2.363 2.241-1.179 1.6-.812 1.187.517 2.073.468.313.709.154.85-.38.191-.725.41-1.443.649-2.154.179-.532.408-1.047.615-1.57zm-14.638 127.427l-.031.474c-.065 1.148-.132 2.296-.19 3.444a.413.413 0 0 0 .094.288c.293.273 1.848-.106 1.89-.502a8.15 8.15 0 0 0 .005-2.255c-.064-.363-.53-.68-.862-.963a5.093 5.093 0 0 0-.906-.486zm-1.357 4.487c0-1.063.007-2.051-.002-3.039-.006-.69-.046-1.379-.047-2.069-.001-.838-.628-1.115-1.22-1.52v6.692l1.269-.064zm-18.571-146.69a2.121 2.121 0 0 0-.378-.246 2.983 2.983 0 0 1-1.947-2.272 9.561 9.561 0 0 0-.493-1.586c-.118-.253-.457-.403-.696-.6-.186.268-.509.524-.536.808-.158 1.672.275 3.112 1.756 4.113.848.573 1.473.555 2.294-.217zm-4.428 25.561a6.36 6.36 0 0 0 .782-.845c.62-.974 1.773-1.047 2.636-1.605a.639.639 0 0 1 .562.076c.661.473 1.23.105 1.767-.2a.548.548 0 0 0 .304-.547.545.545 0 0 0-.403-.478c-1.535-.493-3.059-.653-4.442.42-.54.42-1.03.903-1.566 1.377.278.15.466.254.61.332.037.53-.724.836-.25 1.47zm19.384 112.94a1.262 1.262 0 0 0-.104.299c-.07 2.397-.134 4.794-.194 7.192-.009.365-.072.774.542.77.566-.005.922-.19.928-.783.02-2.046.028-4.092.025-6.138a1.656 1.656 0 0 0-1.197-1.34zM104.927 58.024c-.028-.938.49-1.387 1.346-1.586.125-.029.265-.496.203-.702a2.338 2.338 0 0 0-.566-.865 1.083 1.083 0 0 0-.614-.277 2.213 2.213 0 0 0-.655.105c-.686.13-.917-.043-.908-.743.006-.482.066-.963.104-1.47l-1.639-.242c-.134 2.04.847 5.522 2.729 5.78zm31.022 67.636a3.32 3.32 0 0 0-.269-.442 5.023 5.023 0 0 1-1.344-2.482c-.17-1.023-.276-2.056-.439-3.08-.025-.155-.211-.285-.322-.427a1.54 1.54 0 0 0-.309.373 96.742 96.742 0 0 0-1.147 3.188c-.102.306-.141.63-.114.952.094 1.032.978 1.414 1.688 1.91.696.486 1.429.248 2.256.008zm-20.689 73.311l-.245.083c0 1.197-.008 2.394.001 3.59.018 2.159.068 4.318.052 6.476-.003.455.118.692.534.744.432.055.603-.235.622-.612.077-1.554.155-3.108.207-4.663a165.5 165.5 0 0 0 .077-3.986.959.959 0 0 0-.135-.605c-.339-.371-.738-.688-1.113-1.027zm26.483-42.521c-.565-.496-1.167-.957-1.688-1.496-1.562-1.611-3.093-3.253-4.633-4.886-.306-.325-1.189-.404-1.433-.073-.374.507.212.546.421.767.048.047.091.098.13.153a48.553 48.553 0 0 0 3.708 4.872 2.838 2.838 0 0 0 3.495.663zm-4.129-68.395c-.064-.102-.095-.162-.136-.215a2.253 2.253 0 0 1 .249-3.181c.383-.331.669-.76.828-1.24.119-.81.172-1.63.158-2.449.019-.468-.154-.916-.641-.926a1.229 1.229 0 0 0-.916.511 10.111 10.111 0 0 0-.592 1.618c-.312.844-.408 1.838-1.444 2.198a2.573 2.573 0 0 0 .556 2.119c.16.25.228.55.191.846-.076.55.208 1.33.681 1.522.592.242.644-.384.937-.621a.904.904 0 0 0 .129-.182zm-34.771 26.006c-.231.711-.526 1.4-.881 2.057-.83 1.257-1.803 2.418-2.65 3.665a17.32 17.32 0 0 0-1.362 2.472.882.882 0 0 0 .324.79c.457.227.94.399 1.438.51.05.016.176-.129.226-.222 1.201-2.255 2.436-4.493 3.576-6.779.592-1.186.349-1.92-.671-2.493zm26.658-1.332c.294-.422.555-.867.779-1.331.334-.865.774-1.747.83-2.644.058-.947-.27-1.921-.454-2.879a.664.664 0 0 0-.302-.398c-.963-.522-1.939-1.02-3.069-1.608a16.114 16.114 0 0 0 2.216 8.86zm48.205 8.476c.387-.021.646-.033.904-.048a4.75 4.75 0 0 1 1.32-.062c1.877.446 3.767.854 5.426 1.948a13.57 13.57 0 0 0 2.203 1.052c.129.055.351-.11.53-.172-.078-.168-.113-.384-.239-.494-1.148-1.006-2.274-2.042-3.481-2.972-1.143-.88-2.376-1.644-3.57-2.459a.598.598 0 0 0-.88.14c-.609.709-1.244 1.397-1.829 2.125a3.96 3.96 0 0 0-.384.942zm-77.223 2.799l1.952 1.362c.119-.339.182-.549.266-.75.614-1.468 1.131-2.989 1.879-4.387a19.153 19.153 0 0 0 1.619-4.693.759.759 0 0 0-.161-.614 4.058 4.058 0 0 1-1.386-2.418 1.598 1.598 0 0 0-.411-.805.587.587 0 0 0-.563.083c-.4.616-.195 1.414.173 2.047.384.757.705 1.544.959 2.354.029.076-.065.204-.113.302-.541 1.094-1.079 2.19-1.631 3.278-.222.437-.46.867-.718 1.284-.602.974-1.221 1.938-1.865 2.957zm30.275 32.581l.041.21c2.04.46 4.079-.036 6.165-.109-.77-1.171-1.581-2.239-2.409-3.296-.364-.505-.767-.98-1.206-1.421-.925-.856-1.628-2.103-3.264-1.737-.546.122-.82.301-.9.602.948 1.062 1.808 2.006 2.647 2.968.943 1.081.686 2.054-.65 2.558a3.581 3.581 0 0 0-.424.225zm-27.683 16.925l-.065.002c-.124-1.171-.258-2.341-.367-3.513-.051-.55-.375-.654-.833-.582a.701.701 0 0 0-.529.252.689.689 0 0 0-.146.567c.045.621.071 1.243.078 1.866.023 2.065.075 4.131.032 6.195a21.777 21.777 0 0 1-.353 3.311c-.156.885-.152 1.041.665 1.471.704.37.824.358.967-.429.259-1.286.435-2.587.529-3.895.089-1.744.022-3.496.022-5.245zm8.633 19.395a1.899 1.899 0 0 0 .707 2.197c1.108.85 2.285 1.613 3.354 2.506 2.599 2.169 5.148 4.398 7.739 6.577a.724.724 0 0 0 .701-.021c.289-.44-.121-1.954-.554-2.284-3.748-2.848-7.498-5.696-11.248-8.542-.203-.154-.434-.271-.699-.433zm18.518-93.666c.03-.26.084-.516.161-.766a18.2 18.2 0 0 1 1.347-2.87c.74-1.098 1.71-2.039 2.533-3.085a2.58 2.58 0 0 0 .422-1.087c.101-.592.168-1.19.2-1.79a3.99 3.99 0 0 0-.066-.698l-.218-.03c-.114.196-.242.386-.34.59-.239.502-.426 1.035-.712 1.507a1.066 1.066 0 0 1-.697.512c-1.232-.009-2.186.62-3.077 1.314a3.428 3.428 0 0 0-1.435 3.444c.202 1.189 1.04 1.972 1.882 2.959zm9.107-20.876c.753-1.547 1.457-3.043 2.206-4.518a8.127 8.127 0 0 0 .845-3.905c-.016-1.208-.378-2.311-.581-3.46a8.39 8.39 0 0 0-.567-2.117 11.48 11.48 0 0 1-1.258-3.9c-.009-.11-.101-.214-.217-.446-.1.256-.201.389-.191.513 0 .703.079 1.405.238 2.09a12.78 12.78 0 0 1 .639 4.522c-.057 1.374-.119 2.75-.246 4.119-.053.483-.209.95-.456 1.368-.548.938-1.006 1.87-.805 3.01.046.286.011.58-.098.848-.321.758.02 1.307.491 1.876zm-27.752 117.601a2.442 2.442 0 0 0-.067.369c.029 1.203.075 2.406.091 3.608.045 3.301.073 6.603.132 9.903a.796.796 0 0 0 .346.618 1.331 1.331 0 0 0 1.154-.181 1.31 1.31 0 0 0 .561-1.024c.044-3.722.077-7.444.1-11.166a.655.655 0 0 0-.178-.46c-.671-.548-1.364-1.069-2.139-1.667zm7.113-43.133l.035-.153c.391.048.774.145 1.14.29a41.074 41.074 0 0 1 3.566 2.1 14.058 14.058 0 0 0 4.506 2.234c.262.039.528.051.793.034a9.805 9.805 0 0 0-.527-.979c-.067-.099-.294-.077-.433-.14-.687-.311-1.541-.47-2.02-.98-1.254-1.338-2.33-2.842-3.508-4.253a2.32 2.32 0 0 0-1.079-.87 5.4 5.4 0 0 0-2.164.009c-1.725.382-3.388 1.032-5.166 1.2-.126.012-.334.141-.34.227a.57.57 0 0 0 .176.459c.193.102.405.16.623.17.881.109 1.767.183 2.646.307.589.083 1.168.228 1.752.345zm-44.542 14.577l.074-.128a1.528 1.528 0 0 0-.125-.224 55.784 55.784 0 0 1-6.199-9.483 1.604 1.604 0 0 0-.837-.706.902.902 0 0 0-.809.283 1.625 1.625 0 0 0-.188 1.014c.211 1.924.448 3.846.724 5.762a1.012 1.012 0 0 0 .542.663c1.364.532 2.755.995 4.129 1.504.369.137.705.36 1.06.534.541.265 1.086.521 1.63.781zM101.02 91.54l.079.236c-.32.236-.622.495-.904.774a1.552 1.552 0 0 0-.456.83c-.07 1.635-.013 3.262.85 4.736.682 1.166 1.372 2.329 2.05 3.498.224.384.403.796.64 1.171.146.232.444.48.613.103.23-.581.411-1.18.541-1.792.074-.479.18-.954.316-1.42a1.374 1.374 0 0 0-.187-1.373c-.31-.484-.77-.938-.891-1.467-.349-1.538-1.191-2.948-1.191-4.578a.593.593 0 0 0-.325-.448 8.463 8.463 0 0 0-1.135-.27zm-29.28 70.251l.199-.054c.216-4.795.487-9.582 1.887-14.241a1.24 1.24 0 0 0-.422.287c-.48.486-.956.975-1.43 1.468a9.22 9.22 0 0 0-.81.884c-.96 1.311-1.88 2.652-2.863 3.947-.306.404-.463.769-.213 1.213.707 1.254 1.443 2.491 2.151 3.745.514.909 1.002 1.833 1.502 2.751zm60.808-80.867c.702-1.027 1.242-1.944 1.906-2.76.867-1.067 1.965-1.964 2.726-3.094 1.28-1.903 2.114-3.996 1.806-6.392-.161-1.25-.236-2.512-.357-3.769-.007-.073-.083-.14-.19-.313-.145.29-.258.493-.349.706-.755 1.76-1.153 3.666-2.17 5.321a1.13 1.13 0 0 0-.105.384 4.715 4.715 0 0 1-1.842 2.924c-.59.465-1.188.924-1.454 1.67-.119.333-.225.672-.368.994a4.314 4.314 0 0 0-.149 3.538c.153.282.337.548.546.79zm-12.606 63.022l.096-.245c-.381-.228-.754-.625-1.146-.647a3.711 3.711 0 0 1-1.918-.547c-1.926-1.234-3.892-2.405-5.824-3.63-.989-.627-1.94-1.317-2.907-1.978a19.84 19.84 0 0 0-.176.13l1.289 9.204a6.806 6.806 0 0 1 3.563-1.148c1.465-.132 2.908-.522 4.361-.799.387-.074.773-.169 1.165-.217.497-.061.998-.083 1.497-.123zm-17.686-11.394c.305.866.54 1.626.839 2.36a10.1 10.1 0 0 1 .895 4.612 8.38 8.38 0 0 0 .063 1.468c.117 1.139.24 2.277.393 3.412.155 1.158.315 2.319.555 3.461.041.196.602.5.738.424.976-.543 2.099-.898 2.692-1.814-.192-.804-.428-1.525-.528-2.264-.314-2.319-.524-4.654-.89-6.964a4.213 4.213 0 0 0-.942-2.23c-.912-.915-2.071-1.587-3.143-2.338a1.954 1.954 0 0 0-.672-.127zm1.477 16.422c-.031-.611-.065-1.019-.068-1.427.057-.373.067-.752.029-1.127a24.467 24.467 0 0 1-.661-5.077 31.849 31.849 0 0 0-.548-3.262 3.96 3.96 0 0 1-.067-.392c-.171-2.341-1.11-4.466-1.866-6.642-.32-.921-.652-1.837-.974-2.757a6.926 6.926 0 0 1-.21-.702c-.146-.611-.27-1.228-.423-1.837a2.283 2.283 0 0 0-.316-.894c-.92-1.101-1.195-1.079-1.543.249-.251.959-.586 1.941-.07 2.986a38.5 38.5 0 0 1 2.923 8.511c.456 1.997 1.094 3.958 1.456 5.97.412 2.292.609 4.623.917 7.071l1.421-.67zm30.738-50.934l.217-.12c.23.183.434.395.606.633.753 1.419 1.964 2.336 3.317 3.107a1.552 1.552 0 0 0 1.867-.255c.462-.604.402-.842-.336-1.625-.473-.502-.906-1.04-1.373-1.546-1.005-1.092-1.981-2.213-3.042-3.248-.851-.83-1.884-.67-2.412.382-.507 1.013-1.156 2.018-.942 3.259.035.221.023.447-.033.663a1.562 1.562 0 0 0 .54 1.68c1.429 1.243 2.871 2.47 4.31 3.702a.3.3 0 0 0 .122.051c1.144.256 1.82 1.145 2.595 1.904.195.164.402.312.62.444.095-.347.172-.617.243-.889.271-1.032-.527-2.873-1.468-3.264-.712-.294-1.468-.484-2.195-.744a2.805 2.805 0 0 1-.819-.417c-.966-.786-1.226-2.02-1.847-3.026-.101-.162.014-.457.03-.691zm-2.346 7.746c.6 2.137-.019 3.961-.919 5.743-.548 1.086-1.128 2.163-1.564 3.293-.52 1.347-1.046 2.745-.671 4.221.32 1.263.662 2.566 2.054 3.25.161-.174.393-.322.472-.528.626-1.632 1.306-3.25 1.803-4.922.469-1.577.741-3.206 1.752-4.576a3.115 3.115 0 0 0 .054-3.9 8.367 8.367 0 0 0-1.135-1.48c-.491-.455-.923-1.086-1.846-1.101zm-11.587 37.143a4.09 4.09 0 0 0-.256-.752 30.44 30.44 0 0 0-2.307-3.421 58.103 58.103 0 0 0-4.635-4.781 55.716 55.716 0 0 0-4.676-3.7c-1.857-1.363-3.716-2.727-5.993-3.383-.826-.316-1.624-.7-2.387-1.149a7.19 7.19 0 0 0 2.602 4.997c2.763 2.354 5.646 4.568 8.509 6.801a40.394 40.394 0 0 0 3.744 2.648c1.322.81 2.737 1.469 4.118 2.182.349.181.723.317 1.281.558zm37.103-38.132a3.426 3.426 0 0 0-.429-.894 28.414 28.414 0 0 0-2.396-2.511 56.392 56.392 0 0 0-4.901-4.032c-1.639-1.143-3.474-2.003-5.206-3.017-1.941-1.136-3.865-2.303-5.793-3.464-.375-.225-.822-.286-.986.114-.168.408-.68.88-.175 1.369.284.283.62.51.989.667 1.686.678 2.896 1.971 4.152 3.189.83.804 1.495 1.78 2.348 2.555 3.023 2.744 6.096 5.433 9.148 8.144.317.282.612.589.94.858.525.43.859.362 1.158-.251.343-.701.654-1.418.97-2.132a5.83 5.83 0 0 0 .181-.595zm-31.273 106.355c1.488-.331 1.58-.444 1.548-1.796-.005-.223-.012-.446-.015-.669-.213-14.433-.427-28.865-.644-43.297a15.357 15.357 0 0 0-.196-2.119c-.035-.22-.278-.407-.426-.61-.235.133-.45.3-.637.494-.658.925-.777 1.963-.75 3.091.212 8.809.382 17.619.557 26.428.112 5.686.206 11.372.326 17.058.044.479.123.953.237 1.42zm9.921-62.076c.769.824 1.512 1.643 2.278 2.438a603.043 603.043 0 0 0 4.802 4.928c.182.193.425.317.689.351 1.025.032 2.053.043 3.076-.012 2.716-.147 5.431-.326 8.144-.513.303-.035.596-.127.865-.27.927-.446.973-1.354 1.146-2.208.418-2.055-.711-3.709-2.188-4.674a4.741 4.741 0 0 0-2.56-.562c-5.333.108-10.664.299-15.996.466a.977.977 0 0 0-.256.056zm16.384-50.828l-.106.138c.351.318.696.643 1.054.953a34.689 34.689 0 0 1 4.103 3.918c.828.994 1.02 1.935.551 3.051a242.334 242.334 0 0 1-2.578 5.946 15.56 15.56 0 0 1-3.729 5.02c-3.431 3.148-6.993 6.169-9.868 9.856a26.103 26.103 0 0 0-2.467 4.239c-.543 1.064-.901 2.221-1.366 3.326-.36.857-.842 1.671-1.124 2.551-.628 1.958-1.183 3.941-1.732 5.923a9.084 9.084 0 0 0 0 4.474h3.259c.15-.857.283-1.71.453-2.555.088-.435.239-.856.366-1.282.291-.975.514-1.977.895-2.915.592-1.459 1.42-2.832 1.922-4.317.916-2.707 2.678-4.855 4.426-6.999 2.36-2.894 5.372-5.205 7.516-8.306 1.593-2.305 3.264-4.555 4.85-6.865.382-.556.525-1.271.839-1.882.5-.969 1.115-1.882 1.563-2.872.605-1.339 1.03-2.638.024-4.11-.986-1.444-1.852-2.89-3.444-3.805-1.676-.964-3.246-2.113-4.864-3.178-.174-.114-.362-.207-.543-.31zm-43.06 98.344c-.78 0-1.465.018-2.149-.003a30.543 30.543 0 0 1-7.855-1.474c-5.771-1.736-11.168-4.362-16.602-6.881a93.434 93.434 0 0 1-11.676-6.235c-1.884-1.224-3.74-2.492-5.602-3.747-.353-.238-.642-.361-.933.103-.863 1.379-1.779 2.727-2.62 4.12-.5.829-.351 1.248.513 1.679.937.467 1.913.86 2.84 1.343 2.744 1.429 5.459 2.916 8.215 4.32 1.183.603 2.443 1.052 3.663 1.583 3.714 1.617 7.437 3.217 11.137 4.867 3.306 1.475 6.803 2.304 10.33 2.941 3.27.613 6.596.882 9.922.803.534-.016.799-.26.811-.759.021-.845.006-1.692.006-2.66zm6.755-18.982c.269.217.548.327.573.48.216 1.035.355 2.084.414 3.139.039 2.429-.051 4.86-.051 7.29 0 2.229.047 4.458.077 6.687-.023.244-.003.49.06.727.072.178.294.295.45.44a1.84 1.84 0 0 0 .332-.488c.044-.241.055-.487.034-.731l-.174-16.935c-.005-.463-.158-1.133.53-1.173.758-.044.647.647.65 1.141.049 6.199.079 12.399.158 18.598.005.37.377.743.615 1.089.018.026.47-.133.482-.233.087-.705.129-1.415.127-2.126-.068-5.778-.154-11.556-.227-17.334a3.34 3.34 0 0 1 .103-.991c.099-.329.252-.683.738-.593.456.085.524.384.526.785.049 6.938.156 13.875.121 20.813-.007 1.331.725 1.916 1.556 2.568.331.259.601.098.655-.317.083-.483.128-.971.136-1.461-.167-6.713-.343-13.426-.527-20.139l-.314-11.908c-.023-.859-.471-1.089-1.219-.657a1.12 1.12 0 0 1-.427.168c-.852.112-1.709.178-2.568.195a12.076 12.076 0 0 1-5.076-1.026 1.004 1.004 0 0 0-1.163.225 4.13 4.13 0 0 1-1.21.808c-.611.191-.678.531-.665 1.078.185 7.539.358 15.078.518 22.617.026 1.186.333 1.619 1.62 2.079v-8.816c.589.592 1.227 1.152 1.24 1.976.037 2.34.06 4.685-.045 7.022a1.956 1.956 0 0 0 .876 1.837c.215.14.44.265.672.375.095-.257.174-.519.236-.786a3.304 3.304 0 0 0-.001-.667c-.038-1.047-.116-2.094-.109-3.141.016-2.25.078-4.5.116-6.75.027-1.624.042-3.249.069-4.873.005-.263.047-.526.092-.992zm17.669-50.599l-.045-.238c-.127-.088-.254-.176-.38-.266a12.654 12.654 0 0 1-1.65-1.206c-.67-.667-1.227-1.446-1.85-2.162a7.356 7.356 0 0 1-.963-1.01c-.948-1.67-1.637-3.424-1.165-5.4.181-.754.455-1.486.69-2.227.092-.249.119-.517.079-.779a1.569 1.569 0 0 0-.305-.722c-.645-.943-1.375-1.902-1.713-2.967a13.976 13.976 0 0 1-.385-6.598 3.622 3.622 0 0 0-.557-2.86c-.728-1.012-1.415-2.052-2.154-3.055a1.497 1.497 0 0 0-.754-.566 34.323 34.323 0 0 0-3.47-.686 63.223 63.223 0 0 0-4.523-.403 6.364 6.364 0 0 0-1.909.167 14.95 14.95 0 0 0-2.021.787 1.42 1.42 0 0 0-.537.321c-.359.423-.658.897-1.016 1.32a2.232 2.232 0 0 1-2.431.85c-.809-.213-1.029-.092-1.199.699-.424 1.981-.88 3.96-1.178 5.961-.161 1.078-.309 2.229.254 3.278a330.17 330.17 0 0 0 2.366 4.33c.061.109.212.169.301.237.177-.734.293-1.43.517-2.089.255-.751-.075-1.184-.54-1.74a4.217 4.217 0 0 1-.942-2.034 12.884 12.884 0 0 1 .101-2.982c.068-.503.218-.992.443-1.448.324-.702.726-1.367 1.09-2.05.098-.185 1.342-.728 1.504-.622a.702.702 0 0 1 .2.318c.049.135.089.273.121.412 1.213-.25 1.495-.516 1.53-1.588.017-.507.215-.687.685-.646.244.02.488.059.733.064 1.476.028 2.957.12 4.43.05 1.093-.053 2.173-.343 3.266-.474a.879.879 0 0 1 .711.293c.129.194.155.689.036.768a1.298 1.298 0 0 1-.968.216c-1.209-.381-2.321-.089-3.463.28-.787.226-1.587.405-2.395.537-.563.112-1.141.149-1.699.281a25.186 25.186 0 0 0-3.043.827c-.385.144-.645.647-.924 1.016-.034.044.164.386.261.388.872.022 1.755.607 2.612-.27.463-.472 1.251-.611 1.854-.966a.992.992 0 0 1 1.236.147c-.11.119-.212.245-.305.379-.892 1.523-2.455 1.9-3.988 2.296-.285.074-.634-.109-.954-.166-.764-.135-1.529-.266-2.254-.391.005.647.048 1.292.128 1.934.134.73.332 1.448.593 2.144.231.48.501.941.805 1.378a2.427 2.427 0 0 1-.04 2.693 1.399 1.399 0 0 0 .231 1.923c.168.23.286.493.346.771.105.314.146.65.264.959.276.727.573 1.446.878 2.162.148.396.334.777.553 1.139a1.19 1.19 0 0 0 1.503.524c.462-.234.559-.755.373-1.478-.178-.693-.274-1.406-.407-2.111l.253-.12c.347.589.843 1.141 1.002 1.776.165.806.209 1.632.13 2.451-.08 1.413.495 2.528 1.356 3.575.831 1.01 2.008 1.365 3.161 1.755a.635.635 0 0 0 .916-.583c.094-.84.133-1.685.116-2.53-.043-.82.447-1.21 1.048-1.738 0 .279.053.455-.008.571-.569 1.081-.373 2.206-.251 3.341.196 1.824.859 3.35 2.516 4.323a4.14 4.14 0 0 0 2.958.63 13.908 13.908 0 0 1-1.356-1.987 9.096 9.096 0 0 1-.484-6.755c.527-1.638 1.271-3.253 1.071-5.057-.016-.145.102-.423.19-.437a.712.712 0 0 1 .525.164c.615.571.591 1.259.39 2.023-.303 1.151-.68 2.311-.279 3.527.145.56.319 1.112.521 1.654.284.74.666 1.438 1.135 2.076 1.315 1.577 2.932 2.555 5.109 2.052.474-.11.943-.24 1.414-.36zm8.377 20.651c.053-1.434.612-2.654 1.146-3.911 1.402-3.298 3.028-6.453 5.32-9.228a42.189 42.189 0 0 1 2.819-3.214 83.38 83.38 0 0 1 4.831-4.416 14.656 14.656 0 0 1 2.716-1.647c.23-.121.623.072.942.121a2.63 2.63 0 0 1-.535.653c-.929.572-1.999.967-2.81 1.666a61.123 61.123 0 0 0-5.387 5.092 37.968 37.968 0 0 0-4.29 5.616 68.583 68.583 0 0 0-3.438 6.864c-.287.615-.306 1.356-.472 2.155.799-.037 1.412-.095 2.023-.082a.627.627 0 0 0 .68-.481 109.586 109.586 0 0 1 1.57-3.604 19.632 19.632 0 0 1 6.578-7.924 58.591 58.591 0 0 1 5.308-3.611c4.974-2.77 9.914-5.582 14.452-9.043.478-.365.991-.684 1.47-1.048a8.098 8.098 0 0 0 1.135-.965c.445-.493.807-1.059 1.228-1.574.489-.601 1.007-1.179 1.503-1.774a.67.67 0 0 0 .239-.571.676.676 0 0 0-.328-.526c-.353-.269-.704-.542-1.073-.788-3.469-2.31-6.941-4.616-10.416-6.919-.928-.614-1.904-1.163-2.797-1.824-.774-.572-1.136-.487-1.391.461a11.27 11.27 0 0 1-.617 2.041c-1.012 2.07-2.053 4.13-3.169 6.145-.632 1.139-1.445 2.177-2.158 3.273-.775 1.191-1.457 2.449-2.313 3.578-.976 1.289-2.093 2.473-3.163 3.691-.777.885-1.466 1.898-2.391 2.593a17.57 17.57 0 0 0-4.518 5.213 36.584 36.584 0 0 0-1.601 3.444c-.856 1.862-1.756 3.705-2.561 5.589-.668 1.566-1.085 3.201-.745 4.955h2.213zm-37.763 39.708c-.988-.757-1.902-1.46-2.819-2.16-1.607-1.225-3.12-2.61-4.852-3.624-1.663-.973-3.178-2.115-4.728-3.23a37.363 37.363 0 0 0-3.418-2.311c-2.495-1.406-5.049-2.709-7.571-4.066-.904-.485-1.756-1.079-2.689-1.494-2.05-.911-4.13-1.752-6.209-2.596a77.876 77.876 0 0 0-3.251-1.212c-.414-.147-.88-.166-1.273-.349-.554-.259-.862-.067-1.17.383a118.847 118.847 0 0 1-2.654 3.744c-.277.371-.33.673-.034.997a14.88 14.88 0 0 0 1.988 2.066c2.693 1.976 5.392 3.955 8.198 5.763a61.68 61.68 0 0 0 8.947 4.954c.338.145.698.341.486.792-.197.422-.574.357-.921.185-1.98-.977-4.008-1.872-5.925-2.96a94.98 94.98 0 0 1-11.217-7.643c-.823-.637-1.606-1.332-2.467-1.911a1.12 1.12 0 0 0-1.05-.009c-.362.323.057.614.317.85.082.074.184.125.268.198 1.275 1.109 2.55 2.22 3.824 3.332.774.672 1.514 1.392 2.341 1.991 3.878 2.813 8.144 4.963 12.369 7.184 4.809 2.528 9.902 4.398 14.923 6.432 1.98.803 3.992 1.554 6.04 2.156a18.52 18.52 0 0 0 6.408.694c.947-.059 1.066-.11 1.089-1.037.004-.157 0-.313-.001-.469l-.133-24.496c.032-.332.038-.667.019-1-.066-.4-.159-.908-.726-.82a7.093 7.093 0 0 0-1.457.461c-.85.331-1.678.719-2.533 1.034-.784.289-.971.552-.857 1.375.05.351.072.707.089 1.061.093 1.868.14 3.738.279 5.601a20.165 20.165 0 0 1-.792 7.049 1.105 1.105 0 0 0 .247.823c.443.578.952 1.106 1.464 1.687l-.549.575zm-5.074-16.361a11.188 11.188 0 0 1-4.775-.496c-3.61-1.058-5.768-4.741-5.034-8.615.11-.405.287-.789.522-1.137a.565.565 0 0 1 .666-.335.564.564 0 0 1 .236.13c.131.115.111.507.039.734-.469 1.463-.58 2.87.083 4.345.47 1.046 1.258 1.763 2.01 2.545a3.62 3.62 0 0 0 2.41 1.181 20.953 20.953 0 0 0 8.499-1.088c2.016-.737 3.944-1.713 5.904-2.599.799-.362 1.558-.821 2.375-1.134a2.945 2.945 0 0 1 1.583-.23c2.075.462 4.108 1.127 6.251 1.221.227.01.663-.204.658-.297a1.118 1.118 0 0 0-.33-.803 12.18 12.18 0 0 0-1.886-.989 15.91 15.91 0 0 0-2.421-.887c-.966-.237-1.979-.282-2.954-.49a4.755 4.755 0 0 0-3.42.5 1.27 1.27 0 0 1-1.312.033c-.444-.219-.469-.494-.066-.724a9.98 9.98 0 0 1 1.622-.751c2.264-.79 4.513-.051 6.736.224 1.596.198 3.049 1.039 4.351 2.058.355.227.749.386 1.163.467a.95.95 0 0 0 .564-.101c.357-.154.686-.373 1.046-.515.401-.158.536-.319.226-.715-.26-.359-.5-.731-.72-1.116-.705-.352-1.443-.529-1.893-.988-.796-.811-1.882-.981-2.796-1.513a4.747 4.747 0 0 0-2.937-.673 6.469 6.469 0 0 1-2.003-.027c-1.685-.351-3.333-.462-4.993.132-.586.21-.767-.337-.913-.743a.538.538 0 0 1 .477-.782c.679-.065 1.361-.09 2.043-.074.797.018 1.613.233 2.387.123 2.107-.301 4.114.094 6.086.721.696.221 1.289.748 1.957 1.078 1.423.702 2.869 1.354 4.294 2.052.367.18.764.47 1.089.134.368-.399.657-.863.854-1.368a.866.866 0 0 0-.312-.752c-.639-.432-1.34-.772-2.011-1.157-.916-.527-1.818-1.081-2.744-1.59-1.223-.673-2.397-1.565-3.711-1.919-2.833-.763-5.764-.74-8.687-.491a4.772 4.772 0 0 1-1.342-.281l.015-.262c.704-.169 1.423-.291 2.106-.522.471-.159 1.187-.389 1.279-.728.264-.97.992-1.218 1.745-1.445 1.504-.454 3.032-.83 4.544-1.257 1.625-.46 3.252-.776 4.714.385a7.546 7.546 0 0 1 1.53 1.641 12.284 12.284 0 0 0 4.393 3.899c.456.189.93.333 1.414.43.038-.551.184-.962.069-1.278a6.855 6.855 0 0 0-3.199-3.837 3.19 3.19 0 0 1-1.286-1.283 6.848 6.848 0 0 0-3.512-3.564c-1.44-.619-2.848-.827-4.34-.248a13.422 13.422 0 0 1-4.962.945 5.381 5.381 0 0 0-1.307.241c-1.659.428-2.962 1.496-4.342 2.428-.539.392-1.107.742-1.7 1.047-.718.339-1.484.578-2.235.846-2.26.806-4.484 1.745-6.793 2.372-2.957.804-5.606 2.045-7.604 4.406a12.915 12.915 0 0 0-1.82 2.848 38.29 38.29 0 0 0-1.44 3.935c-.241.711-.589 1.451-.574 2.171.03 1.407-.459 2.657-.886 3.931a1.996 1.996 0 0 0 .93 2.434 28.44 28.44 0 0 1 4.014 1.932c3.407 2.181 6.737 4.482 10.168 6.783 1.2-3.631.174-7.073.208-10.548zm-17.55.049c.313-1.335.594-2.628.919-3.909a29.463 29.463 0 0 1 4.02-9.456 11.416 11.416 0 0 1 3.912-3.55 19.35 19.35 0 0 1 4.078-1.794c1.742-.518 3.423-1.24 5.144-1.839.4-.139.586-.319.558-.746-.066-.998-.088-2-.17-2.996-.122-1.488-.11-3.013-.46-4.448-.61-2.501-1.42-4.957-2.21-7.411-.574-1.781-1.234-3.536-1.89-5.289-.274-.735-.555-.78-1.066-.213a32.077 32.077 0 0 0-1.4 1.676 41.316 41.316 0 0 0-2.877 3.749c-1.09 1.766-2.628 3.251-3.274 5.308-.263.835-.888 1.554-1.168 2.386-.694 2.063-1.47 4.125-1.875 6.253-.667 3.498-1.078 7.045-1.574 10.575-.173 1.229-.278 2.467-.414 3.703-.72.019-.98-.29-.91-.946.19-1.794.359-3.591.537-5.386a69.597 69.597 0 0 1 2.71-13.135 19.456 19.456 0 0 1 2.677-5.364c1.316-1.932 2.6-3.886 3.897-5.831 1.1-1.649 2.166-3.319 3.722-4.609.314-.284.543-.651.66-1.059.24-.807.372-1.646.556-2.47.154-.687.154-1.473.506-2.04 1.344-2.161 2.826-4.235 4.203-6.377.358-.656.664-1.34.917-2.044l-.176-.139c-.402.252-.816.487-1.204.758-1.25.875-2.559 1.685-3.719 2.667-1.375 1.165-2.606 2.498-3.924 3.733a40.328 40.328 0 0 0-7.288 9.377c-3.165 5.484-6.144 11.076-9.184 16.633a15.17 15.17 0 0 0-.936 2.13c-.541 1.498-1.228 2.979-1.506 4.529-.477 2.666-.729 5.375-.978 8.075a3.673 3.673 0 0 0 .427 2.035c.657 1.157 1.567 2.169 2.254 3.313a5.89 5.89 0 0 0 2.646 2.235c.93.454 1.855.92 2.783 1.38l1.077.536zm46.043-40.064a3.79 3.79 0 0 1-.665.23c-1.642.202-3.23.331-4.77-.64-1.108-.7-2.198-1.346-2.912-2.48a.729.729 0 0 0-.353-.247 27.221 27.221 0 0 1-2.616-.965c-1.94-.961-3.744-2.076-3.777-4.622-.006-.46-.231-.718-.758-.686a1.859 1.859 0 0 1-1.73-.834c-.615-.92-1.162-1.884-1.751-2.822-.109-.173-.283-.435-.418-.429a.788.788 0 0 0-.553.358c-.24.452-.456.917-.647 1.393-.892 2.018-1.789 4.035-2.662 6.062a.754.754 0 0 0 .018.638c.251.282.545.524.87.717 1.371.867 2.755 1.713 4.131 2.573.124.092.242.193.353.301.668.553 1.301 1.157 2.011 1.648 1.718 1.186 3.472 2.323 4.799 3.973.891 1.107 1.758 2.233 2.634 3.35.043.052.08.107.113.165.968 1.78 1.921 3.567 2.914 5.332.181.345.46.63.801.818 1.058.495 2.07 1.091 2.574 2.145.541 1.131 1.346 1.272 2.435 1.167 1.904-.182 3.817-.286 5.727-.395.569-.033.615-.323.491-.757-.354-1.24-.175-2.467.032-3.707a29.33 29.33 0 0 1 1.485-5.54c.918-2.437 1.606-4.961 3.02-7.189.206-.346.377-.71.511-1.09a12.696 12.696 0 0 1 2.47-3.939 59.055 59.055 0 0 1 7.708-7.18c2.838-2.206 4.683-5.16 5.914-8.504a1.058 1.058 0 0 0-.234-.846c-.321-.39-.762-.678-1.118-1.042a29.389 29.389 0 0 0-4.461-3.989c-2.845-1.917-5.173-4.428-7.501-6.921a14.02 14.02 0 0 0-3.677-3.04 7.635 7.635 0 0 1-2.126-1.889c-.6-.707-.522-.775-.991.042-.077.135-.133.281-.204.42-.168.326-.106.525.218.772.793.605 1.537 1.276 2.286 1.938.867.766 1.679 1.601 2.586 2.317 1.386 1.094 1.993 2.636 2.271 4.236.324 1.858-.178 3.661-1.112 5.325a.985.985 0 0 0 .058.653c.214.688.635 1.361.657 2.049.069 2.219-.986 4.089-2.4 5.644-1.259 1.385-2.836 2.482-4.27 3.709-.143.123-.386.27-.382.4.022.722-.065 1.516.205 2.149a40.505 40.505 0 0 0 1.992 3.765c.208.373.194.651-.21.802-.454.17-.931.275-1.395.419-.245.076-.482.175-.723.264.128.211.269.416.38.635.09.14.137.302.136.468-.013.079-.241.162-.377.174-.555.045-1.112.063-1.668.092-.312.016-.625.022-.935.054-3.158.319-5.046-1.301-6.525-4.018-.128-.234-.285-.451-.542-.855a7.88 7.88 0 0 0-.523 1.112c-.47 1.755.387 3.115 1.403 4.394.517.65 1.13 1.225 1.783 1.923zm25.287 31.425c-.671.036-1.311.093-1.952.103-7.23.109-14.46.213-21.691.313-1.186.016-1.199.004-1.178 1.193.162 9.212.327 18.423.495 27.635.101 5.688.203 11.375.307 17.063.03.333.091.663.182.985 1.385-.694 2.574-1.465 3.876-1.902 2.119-.712 4.302-1.242 6.475-1.78a27.606 27.606 0 0 1 4.763-.957c3.227-.21 6.457-.129 9.625.742.951.209 1.922.318 2.897.325.189.011.478-.274.574-.488.086-.277.113-.569.08-.857-.028-2.588-.061-5.176-.099-7.763l-.526-37.34a1.823 1.823 0 0 0-.637-1.45 1.804 1.804 0 0 0-.72-.376 1.81 1.81 0 0 0-.812-.026c-.859.112-1.72.233-2.584.272-7.044.321-14.089.63-21.134.926-.325.013-.662-.134-.979-.093-.666.085-1.323.245-2.079.394 0 .532.04 1.173-.013 1.807-.043.52.116.631.628.623 7.81-.121 15.621-.215 23.431-.326.626-.009 1.051.143 1.071.977zm-22.803-77.477c.275-.396.496-.92.652-.901.4.078.768.272 1.06.556a1.502 1.502 0 0 1 .413 1.706c-.159.462-.248.949-.427 1.4-.385.977-.966 1.82-2.118 1.882-1.711.089-2.56 1.311-3.357 2.52a9.232 9.232 0 0 0-1 2.47c-.29.974-.463 1.985-.677 2.982-.017.1.006.202.064.285.465.566.955 1.112 1.41 1.685.351.394.654.828.902 1.293a5.956 5.956 0 0 0 2.491 2.801c.977.462 1.977.874 2.997 1.235.695.283 1.368.621 2.011 1.009 1.279.814 1.275 2.231 1.609 3.515a3.843 3.843 0 0 1-.809 3.614c-1.064 1.306-1.403 2.91-1.821 4.473a1.183 1.183 0 0 0 .213 1.023c.178.146.711-.004 1.004-.169a6.527 6.527 0 0 0 1.068-.894c.53-.476 1.07-.942 1.575-1.444 1.172-1.167 2.549-2.152 3.038-3.886.383-1.356.567-2.588-.346-3.852-.845-1.169-1.731-2.188-3.168-2.621a1.584 1.584 0 0 1-.915-.623c-.55-1.101-1.529-1.48-2.602-1.78a6.109 6.109 0 0 1-2.775-1.774c-.547-.575-1.052-1.192-1.625-1.74-1.439-1.373-2.348-2.93-1.827-5.002.485-1.921 2.703-3.835 4.696-4.046.646-.068.808-.346.84-.99.094-.79.258-1.569.489-2.328.164-.704.575-1.445.463-2.098a3.99 3.99 0 0 0-2.664-3.318c-.212-.075-.501-.32-.515-.504-.049-.67-.511-.901-.993-1.199-.996-.614-2.039-1.22-2.422-2.437-.549-1.747.305-4.198 1.686-4.982.813-.461 1.622-.93 2.412-1.428.843-.533 1.729-1.019 2.281-1.91.082-.133.294-.187.445-.277.038.18.049.366.034.55-.054.17-.145.327-.268.457a9.923 9.923 0 0 1-2.925 2.405c-1.2.653-2.301 1.413-2.558 2.906-.263 1.529-.007 2.783 1.518 3.339-.03-.171-.058-.317-.081-.465a3.045 3.045 0 0 1 .521-2.478c.915-1.135 1.609-2.483 2.988-3.19.151-.096.274-.23.357-.388.747-1.225 1.591-2.384 2.002-3.803a24.86 24.86 0 0 1 1.145-2.684c.381-.898.723-1.814 1.128-2.702.097-.21.374-.34.625-.555-.02-.221-.069-.549-.074-.877.033-.33.046-.662.039-.993-.091-.628-.075-1.365-.407-1.849-2.24-3.264-4.715-6.32-8.19-8.389a3.892 3.892 0 0 1-.327-.233 14.648 14.648 0 0 0-6.574-2.958 28.86 28.86 0 0 0-5.939-.25c-1.222 0-2.44.156-3.624.46a22.262 22.262 0 0 0-3.988 1.852c-1.48.821-2.906 1.746-4.311 2.69a1.44 1.44 0 0 0-.627 1.048c.018.283.508.652.861.77.709.19 1.43.335 2.159.432-.038.841-.127 1.68-.268 2.51-.248.98-.557 1.945-.923 2.888a.613.613 0 0 1-.47.296 3.721 3.721 0 0 1-1.179-.132 7.765 7.765 0 0 1-3.035-1.625.959.959 0 0 0-.928-.072 1.115 1.115 0 0 0-.185.933 2.804 2.804 0 0 0 1.687 2.054c.466.2.93.407 1.401.594.645.256.776.509.33 1.02-.562.624-1.174 1.2-1.83 1.725-.297.245-.548.427-.454.861.248 1.154.457 2.317.722 3.466.225.974 1.193 1.23 1.931.534.481-.521.998-1.008 1.549-1.456a8.32 8.32 0 0 0 2.573-2.92c.696-1.278 1.472-2.512 2.221-3.779.55.404.399.854.202 1.288a21.525 21.525 0 0 1-7.206 8.585c-.716.52-1.525.909-2.282 1.373-.83.51-.917.491-1.438-.468l2.078-1.275a11.097 11.097 0 0 1-.652-1.483c-.342-1.308-.595-2.64-.956-3.943-.114-.4-.362-.75-.702-.99a4.577 4.577 0 0 1-1.976-2.003c-.195-.442-.619-.417-.86.032-.209.369-.36.766-.451 1.18a14.96 14.96 0 0 0-.276 2.15 27.38 27.38 0 0 0-.038 3.52c.155 1.896.454 3.78.669 5.673.064.457.063.92-.004 1.377-.137.63-.307 1.251-.508 1.863a1.79 1.79 0 0 0 .119 1.51c.192.443.318.913.373 1.393.19.846.364 1.696.541 2.53.345-.23.665-.496.956-.79 1.034-1.319 2.132-2.552 3.626-3.38a1.129 1.129 0 0 1 1.512.137c.369.383.646.857 1.026 1.225a1.051 1.051 0 0 1 .11 1.542c-.953.01-1.332-.697-1.666-1.414-2.177.263-5.424 3.097-5.606 4.974.31-.2.597-.431.858-.69.83-1.037 1.956-1.535 3.175-1.953a3.347 3.347 0 0 1 2.139-.043c.929.27 1.887.625 2.833-.038.288-.134.594-.227.909-.277-.353 1.474-1.069 2.394-2.522 2.378-.319 1.793-.666 3.492-.908 5.206a13.225 13.225 0 0 0-.133 3.034 5.251 5.251 0 0 0 1.818 3.724 1.804 1.804 0 0 0 2.219.2c.454-.267.97-1.396.734-1.886-.376-.821-.838-1.6-1.377-2.325-.553-.714-.978-1.394-.896-2.347.078-.908.039-1.825.068-2.737a1.14 1.14 0 0 1 .144-.494 5.45 5.45 0 0 0 .5-.793c.333-.988.635-1.986.908-2.994a1.846 1.846 0 0 0-.004-.858c-.324-1.423-.691-2.836-1-4.262a.727.727 0 0 1 .315-.58c.314-.198.705-.267 1.04-.437 1.31-.664 2.571-1.44 3.923-2a7.497 7.497 0 0 1 6.15.06 4.1 4.1 0 0 1 .495.33 2.812 2.812 0 0 1-.35.063c-1.463.02-2.929-.024-4.385.079a6.054 6.054 0 0 0-2.082.592 19.16 19.16 0 0 0-2.279 1.373c-1.228.8-1.511 1.473-1.135 2.733.29-.18.575-.332.833-.52a8.976 8.976 0 0 1 8.404-1.414 2.288 2.288 0 0 1 1.466 1.037 2.42 2.42 0 0 1-.434-.003 9.263 9.263 0 0 0-4.684-.058c-.623.166-1.229.394-1.855.546a4.098 4.098 0 0 0-3.085 3.46 7.629 7.629 0 0 1-.44 1.666c-.111.291-.509.49-.576.778a25.37 25.37 0 0 0-.534 2.997c-.127 1.169-.161 2.35.755 3.384.379-.233.76-.494 1.165-.71a2.052 2.052 0 0 1 3.036 1.585c.016.155.052.308.067.463.055.564.351.798.927.798 1.201.001 2.407-.008 3.602.094 2.127.181 4.252.417 6.263 1.221.241.082.486.15.734.205a10.6 10.6 0 0 1 3.619-6.91c.423-.364 1.114-.42 1.686-.605a4.398 4.398 0 0 0 1.108-.333 2.36 2.36 0 0 0 .99-2.216c-.033-.675-.234-1.237-1.179-1.367zM95.265 79.01c.291-1.532.757-3.04.552-4.625-.174-1.344-.423-2.678-.57-4.024-.34-3.098-.209-6.148 1.117-9.042.136-.3.379-.55.518-.848.18-.369.32-.754.422-1.15.093-.385.048-.806.161-1.182a1.368 1.368 0 0 1 1.035-1.09.743.743 0 0 0 .13-.036c1.427-.536 1.691-1.002 1.424-2.503a2.89 2.89 0 0 1 2.27-3.388 9.544 9.544 0 0 0 3.621-1.614c2.703-1.9 5.753-2.815 9.002-3.297a26.75 26.75 0 0 1 6.193-.27 80.12 80.12 0 0 1 3.905.443c.489.048.968.173 1.418.37 2.961 1.448 5.923 2.913 8.5 5 3.036 2.46 5.015 5.714 6.648 9.197.452.963.793 1.98 1.158 2.983.073.3.131.604.173.91.137.551.295 1.097.451 1.644.035.126.119.242.142.37.672 3.77.132 7.267-2.279 10.37-.742.954-1.304 1.995-.761 3.278a.61.61 0 0 1-.069.438c-.449.883-.424 1.843-.5 2.793-.063.791-.117 1.602-1.047 1.986a.916.916 0 0 0-.379.72c-.002.645.05 1.289.157 1.925a2.506 2.506 0 0 0 1.379 1.843c2.942 1.684 5.841 3.442 8.77 5.153.864.504 1.763.95 2.657 1.403.852.43 1.726.82 2.576 1.257 1.486.763 2.966 1.539 4.439 2.327a6.167 6.167 0 0 1 2.738 2.839c.319.671.835.926 1.535 1.197a30.686 30.686 0 0 1 4.584 2.273c2.209 1.316 4.347 2.753 6.498 4.166.741.487 1.416 1.075 2.149 1.577 1.009.691 2.045 1.343 3.067 2.016.136.074.258.173.356.293 1.017 1.53 2.598 2.342 4.093 3.274a9.839 9.839 0 0 1 1.741 1.333 64.06 64.06 0 0 1 4.734 4.917 52.119 52.119 0 0 1 5.036 7.068c1.281 2.273 2.068 4.832 3.011 7.289 2.254 5.872 4.385 11.794 6.74 17.626 1.333 3.303 3.002 6.472 4.542 9.691.245.407.525.792.836 1.15-.404.082-.814.139-1.225.172a.603.603 0 0 1-.441-.284c-1.388-2.772-2.887-5.499-4.099-8.347-1.396-3.279-2.5-6.682-3.796-10.005-2.04-5.236-4.062-10.482-6.236-15.663a21.135 21.135 0 0 0-5.065-7.246 1.998 1.998 0 0 0-.89-.563c-1.455-.268-2.642-1.094-3.94-1.705-1.913-.901-3.947-1.668-6.109-1.498a5.71 5.71 0 0 0-2.916.994c-4.766 3.688-9.973 6.66-15.183 9.641-3.095 1.77-5.986 3.826-8.331 6.546-1.923 2.229-3.44 4.701-4.137 7.607-.109.455.258.737.727.688a26.513 26.513 0 0 1 3.162-.187c.767.013 1.526.281 2.296.326a5.479 5.479 0 0 1 3.266 1.535 4.2 4.2 0 0 1 1.201 1.924c.422 1.473.884 2.957.239 4.549-.347.859-.46 1.854.219 2.725.111.143.045.432.046.653.004.842.002 1.683.002 2.755.202-.19.381-.404.532-.637.377-.902.741-1.81 1.08-2.727.453-1.23.882-2.468 1.313-3.706.322-.924.588-1.869.954-2.775.607-1.499 1.234-2.992 1.929-4.452.451-.871.947-1.717 1.486-2.536 2.46-4.019 5.233-7.815 8.788-10.925 2.059-1.8 4.39-3.294 6.627-4.884a5.604 5.604 0 0 1 1.852-.893c.348-.086.804.263 1.258.433l-3.928 2.488c.929.636 1.729 1.123 2.461 1.697 2.35 1.841 4.68 3.709 7.008 5.578.644.518.42 1.304.653 1.951l-.171.103c-.162-.129-.334-.249-.487-.388-1.504-1.363-2.94-2.811-4.524-4.072-1.633-1.299-3.408-2.419-5.124-3.612-.505-.351-.915-.247-1.352.199a12.353 12.353 0 0 1-1.817 1.57 15.16 15.16 0 0 0-3.208 2.901c-1.553 1.893-3.129 3.767-4.679 5.662a33.147 33.147 0 0 0-1.431 1.923 8.438 8.438 0 0 0-.506.936c-.39.739-.779 1.479-1.168 2.22-.329.623-.699 1.227-.982 1.87a266.586 266.586 0 0 0-2.761 6.411 26.513 26.513 0 0 0-1.377 3.887 32.714 32.714 0 0 1-1.964 5.811 3.692 3.692 0 0 0-.337 1.473c.031 4.747.098 9.493.154 14.24-.014.488.023.977.111 1.457l1.376-3.017c1.733-3.794 3.418-7.611 5.228-11.368.596-1.237.212-2.237-.156-3.366a36.383 36.383 0 0 1-.891-3.666c-.082-.385.011-.803-.039-1.198-.124-1.199 0-2.41.363-3.559.269-.96.389-1.963.67-2.918.583-1.978 1.155-3.955 2.486-5.625a9.68 9.68 0 0 0 1.277-2.336c.749-1.807 2.151-3.154 3.202-4.745 1.319-1.994 3.103-3.546 4.798-5.185.999-.966 1.056-1.007 2.114-.074 1.8 1.588 3.645 3.138 5.068 5.109.379.495.807.95 1.279 1.358 1.758 1.604 2.891 3.647 4.029 5.686 1.214 2.175 2.472 4.329 3.604 6.546a27.52 27.52 0 0 1 1.214 3.328l-.26.098c-.098-.246-.199-.491-.292-.738-.19-.5-.375-1.001-.563-1.502-.024-.062-.034-.142-.079-.183-1.543-1.395-2.314-3.33-3.476-4.99-.823-1.176-1.48-2.47-2.32-3.632-.922-1.273-1.954-2.467-2.966-3.672-.557-.664-1.21-1.247-1.754-1.919-1.245-1.536-2.872-2.585-4.522-3.599a.805.805 0 0 0-.719.154c-1.907 1.673-3.759 3.401-5.165 5.541-.597.908-1.2 1.813-1.791 2.724a1.546 1.546 0 0 0-.111 1.703c.336.6.654 1.211.999 1.805.857 1.479 1.713 2.959 2.595 4.423.425.704.987 1.333 1.346 2.065.814 1.663 1.543 3.368 2.299 5.059.029.065-.01.161-.035.427-.213-.295-.331-.463-.455-.626-1.5-1.989-3.021-3.963-4.492-5.973-.508-.694-.896-1.475-1.335-2.219-.621-1.054-1.23-2.115-1.865-3.162a2.788 2.788 0 0 0-.49-.487 2.726 2.726 0 0 0-.436.493 31.576 31.576 0 0 0-3.018 8.584 6.376 6.376 0 0 0 .016 2.325 19.197 19.197 0 0 0 1.826 5.711 1.107 1.107 0 0 1 .007.857 3133.124 3133.124 0 0 1-7.768 17.112c-.383.837-.914 1.604-1.363 2.412a.942.942 0 0 0-.096.446c.002 1.338.009 2.677.033 4.016a.885.885 0 0 0 .171.555c.278.296.558.223.746-.134a104.725 104.725 0 0 1 6.958-11.144 79.431 79.431 0 0 1 4.152-5.44c.894-1.066 2.031-1.925 3.024-2.911 1.171-1.162 2.305-2.36 3.456-3.541a7.68 7.68 0 0 1 .707-.702c2.644-2.088 5.277-4.192 7.96-6.231.68-.428 1.4-.791 2.149-1.083l.202.249a9.121 9.121 0 0 1-1.296 1.404 64.916 64.916 0 0 0-9.796 8.292c-2.36 2.509-4.859 4.911-6.824 7.775-.893 1.302-2.006 2.471-2.761 3.842-1.037 1.883-2.583 3.386-3.635 5.233-1.122 1.97-2.159 3.989-3.222 5.992-.29.545-.57 1.1-.804 1.671-.94 2.294-.668 4.68-.501 7.056.018.177.016.356-.007.532a.672.672 0 0 0 .079.591.66.66 0 0 0 .521.288c.629-.86 1.241-1.772 1.93-2.621.866-1.065 1.943-1.987 2.659-3.139a10.639 10.639 0 0 1 3.273-3.26c1.07-.715 2.035-1.583 3.08-2.338.738-.533 1.544-.971 2.297-1.484.881-.6 1.738-1.235 2.607-1.854.12-.1.252-.185.392-.255 2.405-.962 4.789-1.985 7.23-2.848 1.538-.543 3.162-.843 4.749-1.251a4.37 4.37 0 0 1 .648-.157c2.209-.219 4.419-.432 6.629-.638a8.922 8.922 0 0 1 1.601-.066c.507.079 1.008.195 1.499.348l-.024.196c-.105.042-.215.07-.328.083-1.686-.002-3.353-.101-5.025.443-1.226.399-2.615.281-3.862.635-2.199.626-4.546.719-6.589 1.955-1.126.682-2.485.972-3.626 1.633a169.548 169.548 0 0 0-7.752 4.778c-.895.585-1.595 1.462-2.425 2.157-2.331 1.951-3.943 4.518-5.887 6.8-.721.845-1.544 1.602-2.281 2.434-.37.466-.713.953-1.03 1.457.186.093.377.175.573.246 1.588.493 3.181.969 4.768 1.466.497.119.976.303 1.426.547.86.551 1.835.646 2.786.842.579.12.673.371.428.894-.357.762-.653 1.553-1.04 2.487-1.981-2.193-4.339-3.484-7.392-3.65.212.347.363.641.556.906.754 1.031 1.558 2.029 2.268 3.089.283.521.518 1.067.7 1.631.216.51.478 1.005.642 1.531.15.505.249 1.023.297 1.547a.557.557 0 0 1-.297.447.578.578 0 0 1-.477-.223 11.926 11.926 0 0 1-1.916-3.777 14.746 14.746 0 0 0-2.52-4.862 5.059 5.059 0 0 0-2.883-1.821 5.416 5.416 0 0 0-1.439-.021l-.089.229c.22.314.453.62.656.944a17.3 17.3 0 0 1 1.426 2.374 9.216 9.216 0 0 0 1.846 2.836c.183.164.343.352.476.559.546 1.035 1.102 2.068 1.591 3.131a61.314 61.314 0 0 1 1.572 3.741c.133.36.136.756.007 1.117a.521.521 0 0 1-.488.382.527.527 0 0 1-.511-.351c-.316-.553-.492-1.184-.772-1.76-.581-1.196-1.2-2.372-1.785-3.565a12.621 12.621 0 0 1-.92-2.065 11.415 11.415 0 0 0-2.438-4.246c-.441-.523-.753-1.153-1.169-1.699a16.115 16.115 0 0 0-1.265-1.436c-.09-.094-.317-.055-.515-.081.573 1.057 1.153 2.026 1.634 3.043.471.997.834 2.045 1.256 3.067.461 1.118 1.002 2.209 1.389 3.352.56 1.655 1.008 3.347 1.514 5.021.302 1.001.657 1.997.491 3.065-.108.697-.298 1.382-.408 2.079a2.2 2.2 0 0 0-.015 1.161c.275.599.074.919-.401 1.214-.223.14-.435.298-.633.433a1.169 1.169 0 0 1-.491-1.525c.565-1.665.485-3.394.261-5.097-.386-2.949-1.607-5.636-2.824-8.311a42.38 42.38 0 0 0-2.11-4.248 16.044 16.044 0 0 0-3.217-4.128 2.512 2.512 0 0 0-1.41-.576 28.766 28.766 0 0 0-10.534 1.546c-.927.317-1.872.578-2.807.873-.857.269-1.002.511-1.059 1.379-.088 1.328.474 2.487.94 3.654.514 1.289 1.177 2.518 1.777 3.781a2.107 2.107 0 0 1-1.961-1.086c-.527-1.054-1.092-2.094-1.549-3.178-.383-.908-.635-1.871-.947-2.818-1.241.31-1.672 1.021-1.347 2.34a30.9 30.9 0 0 0 .848 3.483c.707 1.889 1.64 3.694 2.36 5.58a17.54 17.54 0 0 0 2.011 3.887c.042.096.065.2.069.305l-.138.133c-.464-.427-.967-.819-1.387-1.287-1.612-1.794-2.338-4.052-3.315-6.199-.905-1.988-1.231-4.063-1.612-6.153a3.377 3.377 0 0 0-.104-.328 1.217 1.217 0 0 0-.808 1.24 24.23 24.23 0 0 0 .681 3.911c.462 1.688 1.069 3.337 1.648 4.991a41.25 41.25 0 0 0 2.952 6.924c1.022 1.794 1.955 3.639 2.92 5.465.059.138.07.292.032.437-5.319-5.866-8.406-12.789-9.698-20.643-.731.354-.62.96-.771 1.425-.339 1.044.261 1.973.404 2.958.343 2.35.746 4.692 1.161 7.03.175.982.549 1.937.64 2.922.177 1.904.211 3.82.317 5.73.077 1.398.179 2.794.262 4.192.002.2-.006.4-.026.6l-.215.036a6.962 6.962 0 0 1-.287-.949c-.286-1.798-.511-3.607-.836-5.398-.308-1.699-.794-3.368-1.055-5.072-.312-2.036-.412-4.103-.711-6.141a25.212 25.212 0 0 0-1.009-4.004c-.05.126-.087.259-.108.394-.121 2.58-.942 5.004-1.619 7.464-1.069 3.884-2.09 7.781-3.13 11.673-.392 1.464-.778 2.929-1.178 4.391-.062.19-.149.371-.256.539-.162.28-.271.66-.736.459-.429-.186-.805-.413-.72-.977.014-.088.034-.174.057-.26.793-2.967 1.579-5.935 2.382-8.898.88-3.246 1.768-6.49 2.664-9.731.1-.364.248-.718.311-1.087a7.37 7.37 0 0 0 .01-1.092 10.353 10.353 0 0 0-2.587 2.855 48.44 48.44 0 0 1-7.122 8.487 16.274 16.274 0 0 1-8.721 4.064c-.788.132-1.583.216-2.38.251-.709.021-.71-.032-.691-.815.143-.038.289-.06.437-.069 2.286.038 4.543-.52 6.549-1.618a23.844 23.844 0 0 0 3.957-2.709c2.357-1.891 4.122-4.304 5.773-6.813a149.225 149.225 0 0 1 4.016-5.834c.797-1.094 1.732-2.088 2.623-3.111.441-.506.748-1.736.428-2.079a.799.799 0 0 0-.628-.212c-1.951.334-3.112 1.791-4.367 3.114a1385.496 1385.496 0 0 1-4.096 4.299c-1.139 1.193-2.162 2.537-3.453 3.536-1.858 1.437-3.482 3.186-5.66 4.225a27.92 27.92 0 0 1-7.16 2.106 13.687 13.687 0 0 1-6.534-.569 9.178 9.178 0 0 1-2.022-1.016c-.177-.108-.198-.472-.291-.719.273-.055.644-.255.806-.145 2.007 1.361 4.28 1.255 6.53 1.202a17.175 17.175 0 0 0 2.439-.374c2.229-.381 4.449-.88 6.405-2.032a26.515 26.515 0 0 0 3.833-2.886c1.985-1.718 3.939-3.479 5.812-5.318 1.191-1.17 2.212-2.514 3.309-3.78l-.109-.159c-.364.107-.723.235-1.093.316-2.173.475-4.331 1.198-6.527 1.35-4.066.284-8.155.276-12.234.29-1.168.003-2.335-.341-3.504-.519-2.072-.314-4.159-.55-6.21-.965a18.847 18.847 0 0 1-3.26-1.165c-.213-.087-.323-.427-.548-.746.145-.029.293-.043.441-.042 2.594.526 5.178 1.099 7.78 1.577a51.03 51.03 0 0 0 10.198.793 198.05 198.05 0 0 0 6.016-.216 9.26 9.26 0 0 0 1.297-.285c1.658-.322 3.321-.61 4.971-.962.632-.135 1.227-.431 1.851-.615 1.684-.499 3.376-.975 5.062-1.467a3.05 3.05 0 0 0 .458-.218c-.38-.85-.865-1.111-1.827-1.066-1.128.052-2.259.062-3.386.128-1.576.093-3.161.138-4.722.351-2.731.372-5.476.723-8.161 1.326-3.865.867-7.764.806-11.65.597-1.815-.098-3.622-.716-5.384-1.255-2.15-.657-4.25-1.48-6.37-2.23-.098-.034-.198-.058-.421-.123.131.318.203.544.312.748 1.05 1.965 2.054 3.956 3.171 5.881a23.847 23.847 0 0 0 7.01 7.628c1.366.958 2.85 1.749 4.272 2.63.15.133.278.288.38.46-.214.129-.463.405-.636.363a7.764 7.764 0 0 1-1.878-.652c-2.658-1.449-5.181-3.118-7.173-5.419a38.577 38.577 0 0 1-3.885-5.18c-1.1-1.818-1.864-3.841-2.773-5.775-.237-.504-.475-1.008-.7-1.518-.188-.429-.321-.945.132-1.206a1.302 1.302 0 0 1 1.084.063c3.389 1.892 7.081 2.858 10.81 3.81 2.08.503 4.225.686 6.361.541 2.555-.132 5.1-.466 7.651-.698.531-.049 1.073 0 1.599-.073.196-.026.496-.258.514-.422a5.674 5.674 0 0 0-.062-1.396c-.015-.109-.241-.262-.375-.267a8.79 8.79 0 0 0-1.654.03 20.712 20.712 0 0 1-6.46-.172c-2.95-.471-5.931-.809-8.834-1.484a33.01 33.01 0 0 1-8.378-3.124c-.782-.428-1.611-.769-2.41-1.167-.383-.192-.822-.416-.556-.957.26-.526.721-.438 1.158-.239.71.324 1.429.636 2.118 1.002a35.648 35.648 0 0 0 10.846 3.702c3.144.529 6.313.929 9.484 1.262 1.066.112 2.171-.163 3.26-.25.616-.05 1.235-.079 1.96-.123.058-.307.096-.617.115-.928.01-1.562-.004-3.123-.001-4.685.001-.567-.215-.821-.832-.831-1.379-.021-2.763-.069-4.136-.2-2.058-.197-4.126-.382-6.159-.746-1.66-.297-3.268-.878-4.911-1.279a71.013 71.013 0 0 1-11.43-3.947 245.748 245.748 0 0 1-10.68-4.949c-2.995-1.484-5.896-3.157-8.84-4.745-.089-.048-.185-.082-.47-.208.336.738.58 1.319.862 1.881.35.696.705 1.392 1.103 2.061.49.822 1.037 1.611 1.543 2.424 1.127 1.811 2.345 3.58 2.847 5.699a1.96 1.96 0 0 1-.136.736c-.238-.125-.575-.19-.694-.386-.47-.778-.836-1.619-1.307-2.396-.588-.97-1.305-1.864-1.85-2.855-.816-1.48-1.518-3.022-2.292-4.525a15.406 15.406 0 0 0-.965-1.581.49.49 0 0 0-.444-.16.7.7 0 0 0-.327.451 197.813 197.813 0 0 0-.657 4.623c-.326 2.529.245 5.022.335 7.536.003.084 0 .168 0 .248-.907.214-.95.209-1.057-.645-.527-4.132-.779-8.261.334-12.347.16-.602.379-1.186.655-1.744a115.61 115.61 0 0 1 2.385-4.483c.456-.809 1.043-1.543 1.512-2.346a.807.807 0 0 0-.083-.746 32.393 32.393 0 0 0-2.046-2.111c-.69-.649-.96-.561-1.587.373-1.398 2.079-2.848 4.125-4.185 6.242-.733 1.161-1.265 2.447-1.91 3.665-1.08 2.042-2.204 4.063-3.254 6.12a31.883 31.883 0 0 0-1.24 2.951c-.158.408-.382.582-.809.458-.427-.124-.662-.382-.531-.844a12.506 12.506 0 0 1 1.335-3.311c1.02-1.644 1.826-3.422 2.745-5.131a390.108 390.108 0 0 1 3.02-5.51 41.19 41.19 0 0 1 2.409-4.076c.827-1.142 1.905-2.101 2.861-3.152.21-.25.404-.513.583-.786.113-.158.222-.319.331-.479.19-.28.39-.554.567-.841.25-.405.45-.846.734-1.223.655-.869 1.4-1.675 1.994-2.581.212-.322.112-.86.12-1.301.007-.35-.047-.7-.06-1.051-.062-1.732-.041-3.471-.203-5.193a5.483 5.483 0 0 1 1.026-3.623c1.202-1.84 2.466-3.638 3.685-5.466 1.25-1.874 3.1-3.031 4.935-4.214a5.323 5.323 0 0 0 2.186-2.497c2.557-6.227 6.222-11.836 9.914-17.418.891-1.348 2.106-2.479 3.15-3.729 2.188-2.624 4.802-4.774 7.493-6.849 1.126-.868 2.174-1.835 3.287-2.719a23.105 23.105 0 0 1 2.074-1.441 1.265 1.265 0 0 0 .626-1.578 7.08 7.08 0 0 1 .03-3.959c.113-.364.158-.679-.313-.875-.2-.082-.333-.349-.472-.55-.912-1.317-1.766-2.679-2.74-3.949-1.103-1.441-1.306-3.071-1.256-4.788.031-1.085.093-2.17.124-3.254a1.024 1.024 0 0 0-.131-.514c-.773-1.34-1.593-2.653-2.32-4.016-.199-.373-.13-.888-.184-1.338"/><path d="M186.809 169.784c-.09.202-.125.479-.28.594-1.06.795-2.159 1.539-3.219 2.335-.652.489-1.25 1.05-1.885 1.563-1.446 1.169-2.909 2.317-4.346 3.497-.461.378-.866.825-1.29 1.246-.204.203-.388.427-.591.631a.685.685 0 0 1-.249.166.66.66 0 0 1-.794-.263.881.881 0 0 1-.107-.427.883.883 0 0 1 .116-.425c1.395-1.362 2.806-2.71 4.277-3.989a17.468 17.468 0 0 1 2.689-1.934c1.257-.728 2.596-1.317 3.89-1.983.245-.152.478-.323.696-.511.298-.216.598-.427.897-.641l.196.141M114.394 87.78c.05.13.06.254.128.319.621.602 1.234 1.218 1.9 1.767a.742.742 0 0 0 .706-.156c.363-.53.677-1.091.938-1.678.069-.263.092-.536.071-.807a2.478 2.478 0 0 0-.807 0c-.861.3-1.698.676-2.648.484-.074-.015-.16.037-.288.07zm-3.087-.935c.33-.117.668-.213 1.011-.287.331-.09.679-.096 1.013-.018a4.34 4.34 0 0 0 2.23.117c1.202-.14 2.153-.78 3.071-1.467.493-.368 1.06-.768 1.006-1.548-1.274-.233-2.478-.814-3.827-.59.296.618.573 1.143.802 1.689a.895.895 0 0 1 .01.714.89.89 0 0 1-.512.5c-.52.191-1.298.327-1.692.07-.593-.389-1.268-.963-1.092-1.903-1.511.41-2.334 1.267-2.02 2.723zm11.617.862c.014-.31.007-.623.048-.93.029-.216.148-.42.184-.637a2.08 2.08 0 0 0-1.571-2.264.652.652 0 0 0-.529.16c-.381.424-.723.885-1.067 1.341-.287.382-.563.771-.829 1.17a.838.838 0 0 0-.181.458 5.078 5.078 0 0 1-1.192 3.513 1.058 1.058 0 0 1-.884.506 1.067 1.067 0 0 1-.906-.467c-.801-1.164-1.752-2.107-3.142-2.536a2.611 2.611 0 0 1-.603-.392c-1.005.573-1.771.536-3.269-.23.279-.323.552-.595.774-.904a3.69 3.69 0 0 0 .768-1.244c.331-1.68 1.517-2.398 2.969-2.91 1.484-.523 2.992-.288 4.495-.195.242.036.477.11.695.222.721.298 1.406.622 2.21.145.512-.304 1.041-.051 1.486.29.212.162.398.357.6.532.7.61.723.606 1.13-.291.377.907.186 1.766.201 2.61.018.966-.68 1.463-1.387 2.053M101.52 75.365a25.826 25.826 0 0 1 3.096-1.283c1.597-.443 2.782-1.465 3.944-2.517 2.524-2.286 4.179-5.166 5.459-8.282.266-.646.384-.694 1.066-.412-.705 1.66-1.246 3.418-2.155 4.959-1.472 2.49-3.267 4.786-5.775 6.347A18.07 18.07 0 0 1 103.5 75.9c-.549.188-1.273-.133-1.917-.223l-.063-.31m32.134-12.774c.104 1.232.431 2.528-.399 3.625-.971 1.284-2.063 2.477-3.129 3.686-.847.96-1.778 1.85-2.584 2.843a2.617 2.617 0 0 0-.672 2.04c.026.178-.134.382-.231.633a1.426 1.426 0 0 1-.432-1.697 8.415 8.415 0 0 1 1.729-2.717c1.258-1.375 2.332-2.918 3.484-4.39a7.707 7.707 0 0 0 1.708-3.556c.03-.194.231-.36.353-.538l.173.07zm-9.254 1.624c-.233-.839.184-1.349.47-1.798 1.096-1.718 2.289-3.374 3.408-5.077.301-.458.442-1.018.711-1.501.112-.2.366-.32.556-.475.035.284.178.609.088.845-.317.826-.714 1.623-1.079 2.43-.385.849-.778 1.693-1.147 2.548-.167.385-.329.678-.838.71a1.305 1.305 0 0 0-.723.498c-.464.532-.883 1.104-1.446 1.82m-1.191 8.103a3.725 3.725 0 0 1 .514-2.759l1.374-2.014h2.043l-3.736 4.862-.195-.09m1.173-13.181a7.58 7.58 0 0 1 .574-1.614c.621-.99 1.344-1.918 2.041-2.86a.965.965 0 0 1 .467-.361c.275-.073.671-.17.838-.036a.838.838 0 0 1 .119.811 6.153 6.153 0 0 1-1.75 2.117 12.16 12.16 0 0 0-1.677 1.675c-.116.12-.215.256-.322.384a87.47 87.47 0 0 1-.29-.116zm1.34 16.056c.156.293.283.601.376.92a11.593 11.593 0 0 0 2.016 4.96c.434.53.815 1.1 1.14 1.703.15.451.236.92.258 1.395l-.19.077a2.78 2.78 0 0 1-.302-.361c-.922-1.54-1.869-3.066-2.738-4.636a9.074 9.074 0 0 1-.594-1.81 5.183 5.183 0 0 1-.141-.72c-.068-.475-.126-.953-.188-1.429l.363-.1m4.525-15.115c-.1.627-.215 1.283-.309 1.942-.102.723-.148 1.458-.29 2.173a9.83 9.83 0 0 1-.517 1.624c-.043.11-.286.14-.436.209-.061-.171-.217-.377-.168-.509.683-1.852.413-3.86.953-5.733.013-.11.038-.217.074-.32.086-.135.181-.263.285-.383.122.106.227.232.309.371.055.205.089.414.099.626m-26.128 18.037c.038-.253.104-.502.196-.742.078-.151.272-.244.414-.362.111.135.214.276.31.423.295.438.551.9.765 1.382.173.438.245.908.21 1.377-.047.424-.398.552-.793.246-.773-.6-.859-1.503-1.102-2.324m21.584-22.985c-.861-.053-1.024-.207-1.085-1.03-.028-.365-.05-.73-.076-1.13 1.19.477 1.224.543 1.161 2.16zm5.347 31.86l-.785-.454.334-.81.246.004.205 1.26m12.523 109.852c.419-.046.84-.077 1.256-.14.485-.074.658-.394.379-.808a9.925 9.925 0 0 0-1.126-1.379c-.374-.383-.701-.251-.837.291-.102.407-.165.825-.282 1.229-.179.618-.042.813.61.807zm-.237-13.453a8.192 8.192 0 0 1-.968 1.003c-.623.449-.492.904-.116 1.404.116.162.243.316.379.461.497.507.832.527 1.384.093.651-.509.801-1.003.418-1.56-.323-.468-.701-.899-1.097-1.401zm1.311-9.196c-1.062 0-1.858.004-2.654-.002-.47-.003-.776.307-.576.619.383.596.774 1.19 1.196 1.76.491.661.612.639 1.033-.074.16-.214.306-.438.435-.672.194-.474.34-.969.566-1.631zm6.747 12.583c-.032-.623-.081-1.245-.091-1.868-.01-.551-.242-.672-.72-.45-.546.253-1.097.492-1.643.744-.523.242-.613.6-.166 1 .495.446 1.034.84 1.608 1.176.997.578 1.042.532 1.012-.602zm-16.599-3.945c-.171.222-.429.401-.424.573a42.08 42.08 0 0 0 .207 3.051c.047.438.321.606.766.369a5.729 5.729 0 0 0 1.116-.55c.443-.335.79-.78 1.006-1.291.079-.266-.36-.806-.692-1.051a17.532 17.532 0 0 0-1.979-1.101zm-.933-1.085c.457.133.902.306 1.329.515 1.049.62 2.064 1.299 3.095 1.952.054.04.119.063.187.067.88-.052 1.81.414 2.636-.144.798-.539 1.642-1.087 1.611-2.244a4.26 4.26 0 0 1 .019-.867c.395-2.217-.693-3.871-2.021-5.449-.483-.575-.915-1.192-1.374-1.793.555-.374 5.044-.56 6.211-.285-.103.349-.185.702-.31 1.04-.438 1.186-.896 2.365-1.333 3.551a2.67 2.67 0 0 0-.18.763c-.045.869-.091 1.739-.071 2.607a2.1 2.1 0 0 0 .302 1.046c.413.631.868 1.233 1.364 1.801.23.282.529.499.869.629 1.299.418 2.357-.123 3.388-.88a7.853 7.853 0 0 1 1.876-.958.555.555 0 0 1 .52.03.566.566 0 0 1 .273.445c.053.214.085.433.095.654-.07 1.352-.152 2.703-.245 4.053-.045.649-.54.954-1.088.595-1.306-.856-2.871-1.331-3.831-2.721-.203-.294-.889-.254-1.354-.368-.708 1.024-1.415 2.013-2.077 3.031-.158.269-.24.576-.238.888a16.03 16.03 0 0 0 .083 2.736c.069.44.517.825.81 1.223.751 1.016 1.524 2.015 2.258 3.043.206.287.093.579-.28.656-.347.071-.705.084-1.058.127-1.363.165-2.726.332-4.088.499-.108.02-.218.032-.328.035-.057-.001-.114-.052-.245-.118.272-.486.558-.95.795-1.438.138-.326.255-.66.348-1.002.239-.609.436-1.234.589-1.87.137-.759.083-1.553.213-2.314.412-2.393-1.165-3.974-2.307-5.722-.365-.557-1.87-.329-2.25.207-.292.38-.631.721-1.01 1.014a40.155 40.155 0 0 1-1.918 1.492c-.2.149-.483.348-.673.301a.77.77 0 0 1-.271-.249.769.769 0 0 1-.127-.345c-.137-1.994-.235-3.989-.34-5.984-.002-.037.042-.076.146-.249m-9.115-44.7a7.358 7.358 0 0 1-3.436-1.598c-.945-.736-1.86-1.51-2.778-2.28a1.903 1.903 0 0 1-.469-.557c-.084-.164-.129-.521-.064-.557.223-.096.464-.142.706-.135.089-.004.198.1.272.179 1.599 1.721 3.797 2.581 5.66 3.923.297.137.612.23.935.277.172.066.34.141.503.226-.147.144-.27.352-.446.417a3.977 3.977 0 0 1-.883.105m4.723 3.426c-.267.346-.431.548-.583.758a.788.788 0 0 1-1.192.26 6.796 6.796 0 0 0-1.13-.364 2.189 2.189 0 0 1-.817-.411.897.897 0 0 1-.135-.708.581.581 0 0 1 .503-.266c1.088.21 2.166.467 3.354.731m4.551-4.356c-.06.198-.137.391-.23.576-.716 1.169-1.429 2.34-2.186 3.482-.119.18-.456.214-.692.316-.044-.235-.186-.51-.111-.698.164-.436.396-.843.688-1.206.743-.891 1.537-1.741 2.31-2.607l.221.137m-12.711-29.533c1.061.522 1.531 1.473 1.927 2.38 1.041 2.378.578 4.672-.759 6.791-.605.958-1.703 1.253-2.762 1.4-2.419.336-4.183-.756-5.468-2.716a21.866 21.866 0 0 1-1.137-2.111c-.709-1.39-.56-2.86-.303-4.351.053.152.094.308.124.466a14.485 14.485 0 0 0 1.913 5.368 4.535 4.535 0 0 0 5.908 1.83 3.562 3.562 0 0 0 1.982-2.844 6.677 6.677 0 0 0-.528-3.712c-.357-.766-.578-1.595-.897-2.501z"/><path d="M119.043 113.562a2.383 2.383 0 0 1-2.269-.458 5.848 5.848 0 0 1-1.799-2.677c-.268-.686-.423-1.417-.62-2.101.641-.321.811-.059.95.374.272.916.592 1.816.96 2.697a3.2 3.2 0 0 0 2.358 1.891c.105.028.208.064.308.108.016.006.025.034.112.166m-.691-4.144c-.856.065-1.121-.065-1.502-1.244a11.962 11.962 0 0 1-.3-2.189l.235-.101c.138.128.326.233.403.391.173.358.293.742.43 1.118.244.668.485 1.337.734 2.025"/><path d="M123.333 0a48.487 48.487 0 0 0-48.37 45.833H45.856v28.772a48.414 48.414 0 0 0 0 96.692v29.752h29.469A48.438 48.438 0 0 0 123.699 247a48.443 48.443 0 0 0 48.376-45.951h29.07v-29.752A48.41 48.41 0 0 0 247 122.951a48.416 48.416 0 0 0-45.855-48.346V45.833h-29.443A48.483 48.483 0 0 0 123.333 0zm0 2.58a45.843 45.843 0 0 1 45.855 45.834h29.375v28.703a45.834 45.834 0 1 1 0 91.668v29.683h-29.012c0 .04.004.078.004.118a45.856 45.856 0 0 1-91.711 0c0-.04.002-.078.003-.118h-29.41v-29.683A45.836 45.836 0 0 1 2.58 122.951a45.83 45.83 0 0 1 28.31-42.352 45.834 45.834 0 0 1 17.547-3.482V48.414h29.04a45.845 45.845 0 0 1 45.856-45.833"/><path d="M45.483 96.529l-.318 2.764a.792.792 0 0 1-.68 0l-.132-1.59a2.272 2.272 0 0 0-.603-.22 3.743 3.743 0 0 0-.856-.088 3.66 3.66 0 0 0-.68.055 2.51 2.51 0 0 0-.495.143 2.121 2.121 0 0 0-.362.329 1.993 1.993 0 0 0-.307.477 3.14 3.14 0 0 0-.214.653c-.058.277-.086.56-.083.844a3.6 3.6 0 0 0 .193 1.19c.121.358.313.688.564.971.255.282.568.507.917.658.39.167.81.249 1.234.241.284.004.566-.04.834-.131.218-.074.428-.169.627-.285.186.196.291.454.296.724a4.334 4.334 0 0 1-.555.258 6.465 6.465 0 0 1-.707.224 7.284 7.284 0 0 1-.801.159 5.68 5.68 0 0 1-.824.061 3.939 3.939 0 0 1-1.338-.231 3.353 3.353 0 0 1-1.148-.685 3.408 3.408 0 0 1-.8-1.114 3.583 3.583 0 0 1-.302-1.513 4.735 4.735 0 0 1 .29-1.717c.18-.478.463-.91.83-1.267.373-.352.818-.62 1.305-.784a5.168 5.168 0 0 1 2.184-.242c.182.019.37.032.565.039.194.007.388.004.582-.011.178-.01.353-.048.52-.11l.264.198zm4.566 3.948h-.198a1.27 1.27 0 0 0-.23.022v.586a18.89 18.89 0 0 0 .038 1.218c.011.194.024.368.039.521.256.022.479.034.67.038.199.003.398-.021.592-.071a.98.98 0 0 0 .455-.45c.123-.229.186-.486.18-.745a1.082 1.082 0 0 0-.13-.56.934.934 0 0 0-.352-.34 1.607 1.607 0 0 0-.5-.17 3.245 3.245 0 0 0-.564-.049zm-.363-3.214c-.014.16-.025.345-.032.553a35.45 35.45 0 0 0-.017.642l-.01.653c-.005.216-.006.404-.006.565.127.014.255.02.384.016.11-.003.209-.005.296-.005a.947.947 0 0 0 .73-.29c.192-.232.288-.529.269-.829a1.285 1.285 0 0 0-.346-.976 1.557 1.557 0 0 0-1.103-.33h-.165zm-1.766 3.005v-.949a42.044 42.044 0 0 0-.022-1.36l-.022-.565a148.286 148.286 0 0 1-.878.088 1.282 1.282 0 0 1-.093-.373 1.23 1.23 0 0 1 .038-.405l1.197-.154c.16-.022.365-.044.614-.066a42.332 42.332 0 0 1 1.497-.105c.239-.01.427-.016.566-.016.095 0 .216.006.362.016.159.013.316.037.472.072.175.039.346.096.51.17a1.522 1.522 0 0 1 .796.812c.093.227.137.472.132.718a1.553 1.553 0 0 1-.933 1.464 2.216 2.216 0 0 1-.527.16v.065c.227-.001.452.04.664.121.202.077.388.19.549.335.156.141.283.313.373.504.091.194.138.406.137.62.016.37-.064.738-.23 1.069a1.843 1.843 0 0 1-.61.659 2.636 2.636 0 0 1-.856.356 6.94 6.94 0 0 1-.97.153c-.184.015-.381.026-.593.033a27.524 27.524 0 0 1-1.186.022h-1.985a1.654 1.654 0 0 1-.067-.384.779.779 0 0 1 .077-.383l.625-.11a.255.255 0 0 0 .165-.082.7.7 0 0 0 .11-.324c.037-.252.06-.507.066-.762.014-.34.022-.807.022-1.399m8.922 2.735a.778.778 0 0 1-.214.362 2.14 2.14 0 0 1-.395.318 2.168 2.168 0 0 1-.472.225c-.14.05-.286.078-.434.082l-.746-1.261c.067-.147.162-.279.28-.389a2.105 2.105 0 0 1 1.322-.565l.659 1.228zm-34.7 8.346c-.11.352-.248.732-.412 1.141-.165.41-.331.837-.5 1.283.308.029.611.046.912.05.299.003.617-.002.954-.017-.08-.233-.163-.469-.247-.707l-.242-.686a29.15 29.15 0 0 1-.203-.603 5.47 5.47 0 0 1-.131-.472l-.131.011zm-.187-1.711c.185-.079.38-.129.581-.148a3.16 3.16 0 0 1 .615.006c.102.285.227.617.373.998a136.6 136.6 0 0 0 .988 2.462c.175.428.343.836.504 1.223.162.388.31.739.445 1.053.135.315.25.571.346.768l.505.121a.67.67 0 0 1 .098.383 1.04 1.04 0 0 1-.098.385h-3.348a1.002 1.002 0 0 1 0-.768l.45-.121a.82.82 0 0 0 .226-.082c.055-.033.078-.1.07-.203a3.448 3.448 0 0 0-.11-.416c-.057-.191-.127-.41-.208-.659a41.144 41.144 0 0 0-1.289-.022c-.385 0-.789.011-1.213.033-.168.453-.318.903-.45 1.349l.67.121c.08.249.084.516.01.768h-2.348a1.252 1.252 0 0 1 0-.801l.253-.088c.087-.029.171-.066.252-.109a.422.422 0 0 0 .165-.176c.109-.205.266-.532.471-.982.205-.449.427-.959.665-1.53.237-.57.479-1.168.724-1.794a42.78 42.78 0 0 0 .653-1.771m13.772.097a.78.78 0 0 1 .077.384 1.167 1.167 0 0 1-.088.384l-.515.121a.465.465 0 0 0-.187.103.535.535 0 0 0-.126.247 2.52 2.52 0 0 0-.071.488c-.015.209-.023.478-.023.807v.911c0 .328.004.661.011.998.008.336.017.663.028.981.01.318.024.598.038.84l.845.12c.081.249.081.518 0 .768h-3.478a1.374 1.374 0 0 1 0-.768l.471-.12a.586.586 0 0 0 .176-.094.413.413 0 0 0 .12-.225c.036-.155.059-.313.067-.472.014-.204.021-.482.022-.833v-.911a46.6 46.6 0 0 0-.011-1.014 25.22 25.22 0 0 0-.04-.988 13.497 13.497 0 0 0-.07-.838h-2.338a.317.317 0 0 0-.187.054.424.424 0 0 0-.126.231c-.04.163-.063.33-.07.498-.016.216-.023.503-.023.862a412.778 412.778 0 0 0 .016 1.909c.004.336.012.663.023.981.01.318.027.598.049.84l.659.12c.08.249.083.517.01.768h-3.434a1.448 1.448 0 0 1-.06-.385 1.217 1.217 0 0 1 .048-.383l.538-.12a.625.625 0 0 0 .225-.105.455.455 0 0 0 .143-.247c.039-.156.063-.316.071-.477.015-.201.022-.466.022-.795v-.911c0-.336-.004-.676-.01-1.02-.008-.343-.02-.674-.04-.992a12.485 12.485 0 0 0-.07-.828l-.812-.121a1.505 1.505 0 0 1 0-.768h8.12zm3.095 3.148c-.002.419.063.835.192 1.234.118.372.3.721.538 1.031.22.288.497.528.812.708.31.175.66.266 1.015.263.11 0 .205-.004.285-.011a1.592 1.592 0 0 0 .615-.176c.223-.232.392-.511.494-.817a4.377 4.377 0 0 0 .22-1.541 3.496 3.496 0 0 0-.204-1.206 3.257 3.257 0 0 0-.548-.977 2.562 2.562 0 0 0-.807-.653 2.157 2.157 0 0 0-.987-.236 1.71 1.71 0 0 0-.956.231 1.76 1.76 0 0 0-.504.856 4.578 4.578 0 0 0-.165 1.294zm5.937.077a4.248 4.248 0 0 1-.406 1.947 3.895 3.895 0 0 1-1.02 1.289c-.395.32-.848.562-1.334.712a4.58 4.58 0 0 1-1.345.22 3.996 3.996 0 0 1-1.415-.247 3.324 3.324 0 0 1-1.147-.713 3.235 3.235 0 0 1-.762-1.14 4.419 4.419 0 0 1 .098-3.307c.232-.484.568-.911.983-1.251.408-.33.875-.58 1.377-.735.5-.159 1.022-.24 1.547-.241a3.57 3.57 0 0 1 1.24.225c.405.146.778.37 1.098.657.332.304.599.672.784 1.081.21.473.313.986.302 1.503m7.583-3.269l-.318 2.764a.785.785 0 0 1-.68 0l-.132-1.59a2.275 2.275 0 0 0-.604-.219 3.732 3.732 0 0 0-.855-.088 3.694 3.694 0 0 0-.68.054c-.17.031-.336.079-.495.143a2 2 0 0 0-.67.806 3.126 3.126 0 0 0-.213.653 3.941 3.941 0 0 0-.083.844c-.003.405.062.808.193 1.191.121.358.313.688.564.97.255.283.568.507.917.658.39.167.81.249 1.234.242a2.51 2.51 0 0 0 .834-.132c.218-.073.428-.169.627-.285.186.196.291.454.296.724a4.347 4.347 0 0 1-.555.258 6.06 6.06 0 0 1-.707.224 7.534 7.534 0 0 1-.801.16 5.68 5.68 0 0 1-.824.06 3.962 3.962 0 0 1-1.338-.23 3.373 3.373 0 0 1-1.148-.686 3.4 3.4 0 0 1-.8-1.114 3.584 3.584 0 0 1-.303-1.513 4.732 4.732 0 0 1 .291-1.716 3.45 3.45 0 0 1 .83-1.267 3.552 3.552 0 0 1 1.305-.785 5.162 5.162 0 0 1 2.184-.241c.182.018.37.031.565.038.194.008.388.004.582-.011.178-.011.353-.048.52-.109l.264.197zm8.066.011l-.45 2.621a.884.884 0 0 1-.702 0v-1.612l-.313-.033a7.537 7.537 0 0 0-.456-.032l-.45-.023a6.944 6.944 0 0 0-.307-.011 5.88 5.88 0 0 0-.032.549c-.008.256-.016.533-.023.833-.007.301-.011.595-.01.884v.696c0 .482.003.941.01 1.377.007.435.026.784.055 1.047l.823.154a.984.984 0 0 1 0 .735h-3.49a1.153 1.153 0 0 1 0-.768l.417-.121a.617.617 0 0 0 .27-.142.717.717 0 0 0 .164-.352c.049-.238.076-.48.083-.723a29.723 29.723 0 0 0 .01-2.013l-.022-.883a83.406 83.406 0 0 0-.022-.795c-.007-.238-.01-.397-.01-.478-.32-.009-.64.015-.956.072-.205.047-.325.119-.361.214l-.637 1.425a.807.807 0 0 1-.67 0l.34-2.697.198-.132c.35.072.703.125 1.06.159.665.062 1.333.09 2.002.082.593 0 1.081-.007 1.465-.022.384-.014.697-.033.939-.055a4.087 4.087 0 0 0 .9-.164l.175.208zm2.217 3.181c-.002.419.063.835.192 1.234.118.372.3.721.538 1.031.22.288.497.528.812.708.31.175.66.266 1.015.263.11 0 .205-.004.285-.011a1.594 1.594 0 0 0 .615-.176c.223-.232.392-.511.494-.817a4.377 4.377 0 0 0 .219-1.541 3.496 3.496 0 0 0-.203-1.206 3.255 3.255 0 0 0-.548-.977 2.562 2.562 0 0 0-.807-.653 2.157 2.157 0 0 0-.987-.236 1.71 1.71 0 0 0-.956.231 1.76 1.76 0 0 0-.504.856 4.578 4.578 0 0 0-.165 1.294zm5.937.077a4.248 4.248 0 0 1-.406 1.947 3.896 3.896 0 0 1-1.02 1.289c-.395.32-.848.562-1.334.712a4.58 4.58 0 0 1-1.345.22 3.996 3.996 0 0 1-1.415-.247 3.324 3.324 0 0 1-1.147-.713 3.235 3.235 0 0 1-.763-1.14 4.42 4.42 0 0 1 .099-3.307c.232-.484.568-.911.983-1.251.408-.33.875-.58 1.377-.735.5-.159 1.022-.24 1.547-.241a3.57 3.57 0 0 1 1.24.225c.405.146.778.37 1.098.657.332.304.599.672.784 1.081.21.473.313.986.302 1.503m8.593-3.225a1.15 1.15 0 0 1 0 .768l-.516.121a.491.491 0 0 0-.23.114.675.675 0 0 0-.137.357 6.404 6.404 0 0 0-.071.817c-.016.363-.023.858-.023 1.487v.691c0 .262.002.523.006.779l.01.696c0 .145.01.29.028.434l.813.12c.05.121.073.252.065.383-.007.131-.029.26-.065.385h-3.348a1.11 1.11 0 0 1-.01-.768l.34-.12a.722.722 0 0 0 .197-.121.65.65 0 0 0 .148-.324c.05-.242.08-.488.088-.735.018-.325.027-.781.028-1.366a76.682 76.682 0 0 0-.022-1.524c-.008-.3-.017-.574-.028-.823s-.02-.409-.028-.482h-1.59a18.139 18.139 0 0 1-.259 3.027c-.078.45-.186.896-.323 1.332a4.84 4.84 0 0 1-.478 1.075 2.429 2.429 0 0 1-.647.719 1.403 1.403 0 0 1-.84.263.954.954 0 0 1-.516-.136 1.09 1.09 0 0 1-.35-.352 1.163 1.163 0 0 1-.165-.477 1.023 1.023 0 0 1 .378-.938c.173-.139.38-.231.598-.268l.703.438a.897.897 0 0 0 .406-.406c.149-.28.254-.581.312-.894.095-.464.152-.935.17-1.409.03-.556.026-1.211-.01-1.964l-1.207-.12a1.186 1.186 0 0 1 0-.779h6.573zm-48.599 13.118l-.318 2.764a.799.799 0 0 1-.68 0l-.132-1.591a2.278 2.278 0 0 0-.604-.219 3.735 3.735 0 0 0-.857-.088 3.605 3.605 0 0 0-.68.055 2.49 2.49 0 0 0-.493.143 2.178 2.178 0 0 0-.632.729 3.08 3.08 0 0 0-.334 1.322c.205 0 .411-.002.62-.006.208-.004.399-.012.57-.027.146-.011.29-.031.434-.06.117-.026.186-.057.209-.093l.263-.593a.717.717 0 0 1 .345-.06c.107.011.212.035.314.071l-.143 2.336a1.411 1.411 0 0 1-.746 0l-.023-.68c-.182-.022-.44-.04-.773-.055a16.554 16.554 0 0 0-1.026-.011c.048.342.15.673.302.983a2.631 2.631 0 0 0 1.448 1.315 3.05 3.05 0 0 0 1.114.192 2.49 2.49 0 0 0 .834-.132c.218-.073.427-.168.625-.284.187.195.293.454.297.724a4.334 4.334 0 0 1-.554.258 6.466 6.466 0 0 1-.709.224 7.51 7.51 0 0 1-.8.159c-.272.04-.548.061-.823.061a3.944 3.944 0 0 1-1.34-.231 3.351 3.351 0 0 1-1.146-.685 3.406 3.406 0 0 1-.801-1.114 3.592 3.592 0 0 1-.302-1.513 4.725 4.725 0 0 1 .291-1.717 3.46 3.46 0 0 1 .828-1.267 3.57 3.57 0 0 1 1.307-.784 5.158 5.158 0 0 1 2.184-.242c.182.019.37.032.564.039.194.007.389.004.582-.011.178-.011.354-.048.521-.11l.264.198zm4.564 3.949h-.196c-.078 0-.155.007-.231.021v.587a26.338 26.338 0 0 0 .038 1.217c.012.195.024.368.039.521.256.023.48.035.67.039.2.003.399-.021.592-.071a.987.987 0 0 0 .456-.45 1.52 1.52 0 0 0 .18-.745 1.08 1.08 0 0 0-.13-.56.915.915 0 0 0-.352-.34 1.581 1.581 0 0 0-.5-.17 3.156 3.156 0 0 0-.565-.049zm-.36-3.215a10.37 10.37 0 0 0-.034.554 28.75 28.75 0 0 0-.016.642l-.011.653a30.8 30.8 0 0 0-.006.564c.128.015.256.02.385.017.11-.003.208-.005.296-.005a.943.943 0 0 0 .73-.291c.192-.232.288-.528.268-.828a1.288 1.288 0 0 0-.345-.976 1.557 1.557 0 0 0-1.103-.33h-.165zm-1.768 3.006v-.949a27.642 27.642 0 0 0-.022-1.36l-.021-.565-.44.044-.439.044a1.282 1.282 0 0 1-.093-.373c-.01-.136.003-.274.038-.406l1.197-.153c.16-.023.366-.045.614-.067a54.605 54.605 0 0 1 1.498-.104c.238-.011.426-.016.566-.016.095 0 .215.005.361.016.16.013.317.037.473.072.175.039.346.096.51.17.17.076.327.182.461.312.143.143.257.313.335.499.092.228.137.473.13.719a1.57 1.57 0 0 1-.13.669 1.549 1.549 0 0 1-.801.795 2.259 2.259 0 0 1-.528.16v.065c.227-.001.453.04.664.121.203.077.389.19.55.334.156.142.283.314.373.505.09.194.138.405.136.62a2.18 2.18 0 0 1-.23 1.069 1.847 1.847 0 0 1-.61.658c-.261.169-.55.29-.855.357a7.08 7.08 0 0 1-.971.153 12.2 12.2 0 0 1-.593.033 34.671 34.671 0 0 1-1.185.022h-1.986a1.68 1.68 0 0 1-.066-.384.78.78 0 0 1 .077-.384l.625-.109a.256.256 0 0 0 .165-.083.704.704 0 0 0 .11-.323c.036-.253.058-.507.065-.762.015-.341.022-.807.022-1.399m9.602-2.082c-.109.351-.246.731-.411 1.141-.165.409-.331.837-.5 1.284.308.029.612.045.911.049.3.003.62-.002.956-.017l-.247-.708a80.71 80.71 0 0 1-.242-.685 21.59 21.59 0 0 1-.203-.603 5.343 5.343 0 0 1-.132-.472l-.132.011zm-.186-1.711c.185-.079.381-.129.582-.148a3.15 3.15 0 0 1 .614.006c.102.284.227.617.373.998.146.38.304.778.472 1.195a215.163 215.163 0 0 0 1.465 3.543c.136.315.251.57.346.768l.505.12c.07.116.105.249.099.384a1.037 1.037 0 0 1-.1.385h-3.346a1 1 0 0 1 0-.769l.45-.12a.82.82 0 0 0 .225-.082c.054-.033.078-.1.07-.203a3.514 3.514 0 0 0-.11-.417c-.057-.19-.127-.409-.207-.658a41.204 41.204 0 0 0-1.29-.022c-.384 0-.788.011-1.212.033-.17.453-.32.903-.45 1.349l.67.12c.079.25.083.517.01.769h-2.349a1.25 1.25 0 0 1 0-.801l.253-.088c.087-.03.171-.066.252-.109a.435.435 0 0 0 .165-.176c.11-.205.267-.532.471-.982.205-.45.427-.96.665-1.53.237-.571.479-1.169.724-1.794s.463-1.215.653-1.771m10.623 7.249a1.26 1.26 0 0 1 .022-.769l.483-.12a.328.328 0 0 0 .18-.099.583.583 0 0 0 .116-.252c.035-.157.057-.317.066-.477.014-.202.022-.467.022-.796v-.702a24.447 24.447 0 0 0-1.68-.049 31.23 31.23 0 0 0-1.557.049c0 .417.005.832.016 1.245.01.414.03.774.06 1.081l.67.12c.08.25.08.519 0 .769h-3.424a1.246 1.246 0 0 1 0-.769l.527-.12a.439.439 0 0 0 .356-.362c.04-.157.063-.316.072-.477.014-.201.021-.462.021-.785v-.91c0-.336-.004-.676-.01-1.02a28.63 28.63 0 0 0-.039-.993 12.613 12.613 0 0 0-.071-.828l-.824-.121a1.919 1.919 0 0 1-.049-.384 1.22 1.22 0 0 1 .05-.383h3.424a1.534 1.534 0 0 1 .021.767l-.406.121a.45.45 0 0 0-.175.11.569.569 0 0 0-.126.252 2.53 2.53 0 0 0-.072.483c-.014.204-.021.471-.021.8v.428c.511.037 1.05.057 1.613.061.563.004 1.1-.013 1.613-.05a52.597 52.597 0 0 0-.033-1.135c-.015-.362-.04-.678-.077-.949l-.626-.121a1.52 1.52 0 0 1-.06-.384 1.06 1.06 0 0 1 .06-.383h3.359a1.3 1.3 0 0 1 .01.767l-.515.121a.438.438 0 0 0-.192.104.56.56 0 0 0-.12.242c-.04.158-.062.319-.066.482-.012.209-.017.481-.017.817v.911c0 .329.002.662.005.998a44.488 44.488 0 0 0 .06 1.821l.835.12c.036.127.05.258.044.39a3.345 3.345 0 0 1-.044.379H51.03zm5.092-.003a1.266 1.266 0 0 1-.071-.384.935.935 0 0 1 .07-.384l.538-.12a.538.538 0 0 0 .237-.115.695.695 0 0 0 .148-.368c.045-.279.07-.562.076-.845.015-.373.023-.888.023-1.546v-.91c0-.256-.002-.479-.005-.67a9.67 9.67 0 0 0-.06-.921l-.89-.164a1.105 1.105 0 0 1 0-.724h3.676c.424.006.847-.018 1.268-.072.227-.024.45-.078.663-.159l.165.231-.351 2.83a.994.994 0 0 1-.79 0v-1.821a7.295 7.295 0 0 0-.521-.094 10.502 10.502 0 0 0-.522-.06 4.27 4.27 0 0 0-.466-.017 1.78 1.78 0 0 0-.356.039 8.655 8.655 0 0 0-.1 1.212c-.007.435-.01.905-.01 1.41 0 .146.001.32.005.521l.011.663c.003.242.013.497.027.768.015.271.033.542.055.812l1.372.12c.088.249.088.52 0 .768h-4.192zm7.078-.005a.96.96 0 0 1 0-.757l.538-.131a.466.466 0 0 0 .241-.083.57.57 0 0 0 .148-.357c.041-.283.065-.569.071-.855.015-.38.023-.907.023-1.579v-.905c0-.253-.002-.476-.006-.669a17.82 17.82 0 0 0-.017-.505 7.728 7.728 0 0 0-.032-.412l-.889-.12a1.186 1.186 0 0 1 0-.779h3.896c.263 0 .486-.005.67-.016.152-.008.304-.024.454-.05.103-.017.204-.043.302-.077.073-.025.143-.058.209-.098l.164.132-.307 2.039c-.11.037-.225.058-.34.061a.824.824 0 0 1-.34-.061v-.931c-.162-.03-.335-.057-.521-.083a7.691 7.691 0 0 0-.55-.055 5.856 5.856 0 0 0-.504-.011 2.009 2.009 0 0 0-.379.039c-.043.336-.071.694-.082 1.075a40.6 40.6 0 0 0-.016 1.228c.146.007.292.011.439.011a2.83 2.83 0 0 0 .411-.028 1.59 1.59 0 0 0 .34-.082.545.545 0 0 0 .225-.142l.11-.428a1.31 1.31 0 0 1 .746 0l-.318 2.194a.675.675 0 0 1-.56 0l-.055-.691c-.183-.015-.391-.03-.625-.044a6.057 6.057 0 0 0-.713 0c0 .307.004.655.01 1.042.007.388.03.801.066 1.24.207.029.417.042.626.038.198-.003.396-.017.593-.044a3.26 3.26 0 0 0 .488-.104c.114-.031.223-.079.323-.143l.484-1.185a.89.89 0 0 1 .614 0l-.395 2.414-.187.132a2.598 2.598 0 0 0-.488-.143 5.292 5.292 0 0 0-1.06-.077h-3.807zm10.393-3.917a2.718 2.718 0 0 1-.209.921 1.321 1.321 0 0 1-.208.335.447.447 0 0 1-.264.159l-2.14.373-.208-.242c.007-.16.027-.32.06-.477.03-.148.074-.293.132-.433.047-.12.116-.229.203-.324a.467.467 0 0 1 .263-.148l2.195-.384.175.22zm-33.998 9.935a1.15 1.15 0 0 1 0 .768l-.516.121a.49.49 0 0 0-.23.114.683.683 0 0 0-.138.357c-.04.271-.065.544-.071.817-.014.363-.022.858-.022 1.487v.691c0 .262.002.523.006.779l.01.696c0 .145.009.29.028.434l.812.12a.88.88 0 0 1 .066.383c-.007.131-.03.26-.066.385h-3.347a1.112 1.112 0 0 1-.011-.768l.34-.12a.721.721 0 0 0 .198-.121.647.647 0 0 0 .148-.324c.05-.242.08-.488.088-.735.017-.325.026-.781.027-1.366a77.036 77.036 0 0 0-.022-1.524c-.007-.3-.016-.574-.027-.823s-.02-.409-.028-.482H35.25c0 .512-.022 1.025-.065 1.541-.044.515-.109 1.01-.193 1.486-.078.45-.186.896-.323 1.332a4.84 4.84 0 0 1-.478 1.075 2.433 2.433 0 0 1-.648.72 1.416 1.416 0 0 1-.84.262.954.954 0 0 1-.515-.136 1.09 1.09 0 0 1-.351-.352 1.175 1.175 0 0 1-.164-.477 1.011 1.011 0 0 1 .06-.504c.068-.169.177-.318.318-.434a1.3 1.3 0 0 1 .598-.268l.703.438a.897.897 0 0 0 .406-.406 3.13 3.13 0 0 0 .312-.893c.094-.465.151-.937.17-1.41.03-.556.026-1.211-.01-1.964l-1.208-.12a1.191 1.191 0 0 1 0-.779h6.574zm6.979 2.139c-.168.242-.37.545-.608.911a93.214 93.214 0 0 1-1.795 2.655 61.35 61.35 0 0 1-1.141 1.568 2.462 2.462 0 0 1-1.097.121v-3.746a43.714 43.714 0 0 0-.044-1.941 10.467 10.467 0 0 0-.067-.818l-.79-.121a1.15 1.15 0 0 1 0-.767h3.391a.996.996 0 0 1 0 .767l-.395.121a.453.453 0 0 0-.175.11.609.609 0 0 0-.126.285c-.04.197-.064.397-.071.598-.015.259-.023.605-.023 1.036v.971c0 .114.003.247.006.4l.017.702h.065c.14-.168.298-.385.477-.652a107.047 107.047 0 0 0 1.213-1.843 507.998 507.998 0 0 1 1.235-1.903c.186-.285.353-.527.499-.724a3.943 3.943 0 0 1 1.35-.099c-.037.235-.068.584-.093 1.048a36.71 36.71 0 0 0-.039 1.925v.872c0 .311.002.621.006.932a35.227 35.227 0 0 0 .06 1.717l.846.121a.835.835 0 0 1 .081.383 1.087 1.087 0 0 1-.081.384h-3.49a.832.832 0 0 1-.083-.384.953.953 0 0 1 .093-.383l.473-.121a.497.497 0 0 0 .18-.093.471.471 0 0 0 .116-.241c.035-.167.057-.335.065-.505.015-.216.022-.511.022-.883v-.724a89.108 89.108 0 0 1 .032-1.679h-.109zm10.502-2.183l-.318 2.764a.786.786 0 0 1-.68 0l-.132-1.59a2.276 2.276 0 0 0-.603-.219 3.733 3.733 0 0 0-.856-.088 3.693 3.693 0 0 0-.68.054c-.17.031-.336.079-.495.143a2 2 0 0 0-.67.806 3.132 3.132 0 0 0-.213.653 3.948 3.948 0 0 0-.083.844c-.003.405.062.807.193 1.191.121.358.313.688.564.97.255.283.568.507.917.658.39.167.81.249 1.234.242a2.51 2.51 0 0 0 .834-.132 3.36 3.36 0 0 0 .627-.285c.186.196.291.454.296.724a4.333 4.333 0 0 1-.555.258 6.055 6.055 0 0 1-.707.224 7.527 7.527 0 0 1-.801.16 5.68 5.68 0 0 1-.824.06 3.962 3.962 0 0 1-1.338-.23 3.373 3.373 0 0 1-1.148-.686 3.415 3.415 0 0 1-.8-1.113 3.59 3.59 0 0 1-.302-1.514 4.732 4.732 0 0 1 .29-1.716c.18-.479.463-.911.83-1.267a3.554 3.554 0 0 1 1.305-.785 5.162 5.162 0 0 1 2.184-.241c.182.018.37.031.565.038.194.008.388.004.582-.011.178-.011.353-.048.52-.109l.264.197zm8.066.011l-.45 2.622a.901.901 0 0 1-.702 0v-1.613l-.313-.033a8.395 8.395 0 0 0-.455-.032l-.45-.022a5.93 5.93 0 0 0-.308-.012 6.57 6.57 0 0 0-.033.549l-.022.834c-.007.3-.01.594-.01.883v.696c0 .483.003.942.01 1.377.008.435.026.784.055 1.048l.823.153a.98.98 0 0 1 0 .735h-3.49a1.151 1.151 0 0 1 0-.768l.418-.12a.616.616 0 0 0 .268-.144.701.701 0 0 0 .165-.35c.049-.239.077-.481.083-.725a29.978 29.978 0 0 0 .01-2.012 1506.159 1506.159 0 0 0-.043-1.678 17.153 17.153 0 0 1-.011-.478c-.32-.009-.64.015-.955.071-.205.048-.326.12-.363.215l-.636 1.426a.82.82 0 0 1-.67 0l.341-2.698.197-.132c.35.072.704.125 1.06.158.665.063 1.334.091 2.003.083.592 0 1.08-.007 1.465-.022.384-.014.696-.033.938-.055.188-.014.375-.04.56-.076.131-.03.245-.059.34-.088l.175.208zm117.949-32.301a1.438 1.438 0 0 1-.06-.385 1.065 1.065 0 0 1 .06-.384l.538-.12a.942.942 0 0 0 .241-.088.37.37 0 0 0 .154-.219c.044-.154.07-.312.076-.472.015-.205.022-.486.023-.845v-.91a43.9 43.9 0 0 0-.012-1.02c-.007-.344-.02-.675-.038-.993a12.526 12.526 0 0 0-.072-.828l-.855-.12a1.91 1.91 0 0 1-.05-.385c-.004-.13.013-.259.05-.383h3.654c.036.124.051.254.044.383-.007.13-.026.258-.055.384l-.45.121a.615.615 0 0 0-.241.11.524.524 0 0 0-.159.252 2.083 2.083 0 0 0-.088.483 9.627 9.627 0 0 0-.028.811v.9c0 .329.004.662.012.998l.021.982c.008.318.023.598.044.839l.933.12c.073.251.073.518 0 .769h-3.742zm8.416-3.248h-.197a1.29 1.29 0 0 0-.231.022v.586c0 .209.004.415.012.62.007.205.017.404.027.598.011.194.024.368.038.521.257.022.48.034.67.038.2.003.399-.021.593-.071a.978.978 0 0 0 .455-.45c.123-.229.186-.486.181-.745a1.072 1.072 0 0 0-.131-.56.927.927 0 0 0-.352-.34 1.603 1.603 0 0 0-.499-.17 3.253 3.253 0 0 0-.566-.049zm-.361-3.214a9.491 9.491 0 0 0-.033.553c-.008.209-.013.423-.016.642l-.012.653a74.44 74.44 0 0 0-.006.565c.128.014.257.02.385.016.11-.003.209-.005.296-.005a.945.945 0 0 0 .73-.29c.192-.232.289-.529.269-.829a1.297 1.297 0 0 0-.345-.976 1.56 1.56 0 0 0-1.104-.33h-.164zm-1.767 3.005v-.949a31.299 31.299 0 0 0-.022-1.36l-.022-.565a130.466 130.466 0 0 1-.878.088 1.264 1.264 0 0 1-.093-.373 1.23 1.23 0 0 1 .038-.405l1.196-.154c.161-.022.366-.044.615-.066a42.332 42.332 0 0 1 1.498-.105c.237-.01.426-.016.565-.016.095 0 .216.006.362.016.159.013.317.037.472.072.176.039.347.096.51.17.171.076.328.182.462.313.142.143.256.312.334.499.093.227.138.472.131.718.006.23-.039.458-.131.67-.081.18-.194.343-.334.482a1.57 1.57 0 0 1-.467.312 2.221 2.221 0 0 1-.527.16v.065a1.818 1.818 0 0 1 1.213.456c.156.142.283.313.373.504.091.194.138.406.137.62.015.37-.064.738-.23 1.069a1.851 1.851 0 0 1-.609.659 2.64 2.64 0 0 1-.856.356c-.32.074-.645.125-.972.153-.182.015-.38.026-.592.033a27.298 27.298 0 0 1-1.186.022h-1.986a1.616 1.616 0 0 1-.065-.384.768.768 0 0 1 .076-.383l.626-.11a.252.252 0 0 0 .164-.082.708.708 0 0 0 .11-.324c.037-.252.059-.507.066-.762.015-.34.022-.807.022-1.399m9.602-2.08c-.109.35-.247.73-.411 1.14-.165.41-.332.837-.5 1.284.308.028.611.044.911.049.3.003.619-.002.955-.017a142.23 142.23 0 0 0-.247-.708l-.242-.685c-.076-.22-.144-.42-.202-.603a5.247 5.247 0 0 1-.132-.472l-.132.011zm-.186-1.712c.185-.08.381-.13.582-.148a3.23 3.23 0 0 1 .614.005c.102.285.226.618.372.999.147.38.305.778.473 1.195.168.417.34.84.516 1.267.175.428.343.836.504 1.223.161.388.309.739.445 1.053.136.315.25.571.345.768l.505.12a.676.676 0 0 1 .099.384 1.03 1.03 0 0 1-.099.385h-3.346a.998.998 0 0 1 0-.769l.449-.12a.821.821 0 0 0 .225-.082c.055-.033.079-.1.071-.203a3.55 3.55 0 0 0-.109-.417c-.059-.19-.129-.409-.208-.658a41.202 41.202 0 0 0-1.29-.022c-.384 0-.788.011-1.213.033-.169.453-.318.903-.45 1.349l.67.12c.08.25.083.517.01.769h-2.348a1.248 1.248 0 0 1 0-.801l.252-.088a1.77 1.77 0 0 0 .253-.109.43.43 0 0 0 .165-.176c.11-.205.267-.532.471-.982.205-.45.426-.96.664-1.53.238-.57.479-1.169.725-1.794.245-.625.462-1.215.653-1.771m10.623 7.249a1.262 1.262 0 0 1 .022-.769l.483-.12a.329.329 0 0 0 .181-.099.586.586 0 0 0 .115-.252c.035-.157.057-.317.066-.477.014-.201.022-.467.022-.796v-.702a24.461 24.461 0 0 0-1.679-.049c-.534.004-1.054.02-1.558.049 0 .417.005.832.016 1.245.011.414.031.774.06 1.081l.67.12c.08.25.08.519 0 .769h-3.424a1.247 1.247 0 0 1 0-.769l.527-.12a.532.532 0 0 0 .219-.109.52.52 0 0 0 .137-.253 2.57 2.57 0 0 0 .072-.477c.014-.201.021-.463.021-.785v-.91c0-.336-.004-.676-.011-1.02-.007-.344-.02-.675-.038-.993a12.586 12.586 0 0 0-.071-.828l-.824-.12a1.983 1.983 0 0 1-.049-.385c-.004-.13.013-.259.049-.383h3.425c.036.125.056.254.06.383.004.13-.009.258-.039.384l-.406.121a.447.447 0 0 0-.175.11.57.57 0 0 0-.126.252 2.46 2.46 0 0 0-.072.483 12.23 12.23 0 0 0-.021.8v.428a24.152 24.152 0 0 0 3.226.01 54.214 54.214 0 0 0-.033-1.134 10.612 10.612 0 0 0-.077-.949l-.626-.12a1.557 1.557 0 0 1-.06-.385c-.004-.13.017-.26.06-.383h3.359c.08.249.084.516.01.767l-.515.121a.426.426 0 0 0-.192.104.563.563 0 0 0-.121.242c-.039.158-.061.32-.065.482-.012.209-.017.48-.017.817v.911a50.053 50.053 0 0 0 .027 1.98c.011.318.024.598.039.839l.834.12c.036.127.05.258.044.39a3.463 3.463 0 0 1-.044.379h-3.501zm-12.027 9.758a2.52 2.52 0 0 0-.67.088v.653c0 .237.002.472.005.702.004.23.011.44.022.63.012.191.024.337.039.44.307.029.576.043.806.043.209.003.418-.023.62-.077a.939.939 0 0 0 .445-.439c.12-.241.178-.508.17-.778a1.14 1.14 0 0 0-.401-.938 1.603 1.603 0 0 0-1.036-.324zm.866-3.751a5.79 5.79 0 0 0 1.027-.071c.197-.032.39-.085.575-.159l.198.23-.307 2.096a1.342 1.342 0 0 1-.845-.012v-1.02a4.323 4.323 0 0 0-1.01-.153 24.756 24.756 0 0 0-1.009-.022.742.742 0 0 0-.072.175 2.347 2.347 0 0 0-.05.324c-.014.15-.025.356-.032.619-.008.264-.012.614-.011 1.053l.499-.071c.179-.025.357-.045.532-.06.176-.015.343-.028.499-.038a5.42 5.42 0 0 1 .412-.016c.203.003.404.035.598.093a1.854 1.854 0 0 1 1.131.888c.143.272.213.576.203.883.02.433-.075.865-.274 1.25-.18.311-.445.564-.763.73-.364.183-.758.3-1.163.345-.49.061-.983.09-1.477.088h-2.886a.996.996 0 0 1-.011-.779l.626-.109a.248.248 0 0 0 .165-.094.932.932 0 0 0 .115-.356c.04-.265.064-.533.071-.801a57.358 57.358 0 0 0 .016-2.331 84.223 84.223 0 0 0-.011-.68 28.701 28.701 0 0 0-.016-.565l-.022-.548-.944-.121a1.115 1.115 0 0 1-.011-.768h4.247zm5.3 3.151c-.002.419.063.835.192 1.234.118.372.3.721.538 1.031.22.288.497.529.812.708.31.175.66.266 1.015.263.11 0 .205-.004.285-.011a1.795 1.795 0 0 0 .412-.088c.069-.025.137-.054.203-.088a2.19 2.19 0 0 0 .494-.817 4.354 4.354 0 0 0 .219-1.541 3.489 3.489 0 0 0-.203-1.206 3.248 3.248 0 0 0-.549-.977 2.55 2.55 0 0 0-.806-.653 2.16 2.16 0 0 0-.988-.236 1.71 1.71 0 0 0-.955.231 1.754 1.754 0 0 0-.504.856 4.596 4.596 0 0 0-.165 1.294zm5.937.077a4.238 4.238 0 0 1-.406 1.947 3.911 3.911 0 0 1-1.02 1.289c-.395.32-.848.562-1.334.712-.435.14-.888.214-1.344.22a4 4 0 0 1-1.416-.247 3.33 3.33 0 0 1-1.147-.713 3.25 3.25 0 0 1-.763-1.14 4.411 4.411 0 0 1 .099-3.307c.232-.484.568-.911.983-1.251.408-.33.875-.58 1.377-.735.5-.159 1.022-.24 1.547-.241.423.001.843.077 1.24.225.405.147.777.37 1.098.657.332.304.599.672.784 1.081.21.473.313.986.302 1.503m1.361 3.924a1.225 1.225 0 0 1-.071-.384.92.92 0 0 1 .071-.384l.538-.12a.529.529 0 0 0 .236-.116.684.684 0 0 0 .148-.367 6.13 6.13 0 0 0 .077-.845 43.3 43.3 0 0 0 .022-1.546v-.911c0-.256-.002-.479-.006-.669a9.522 9.522 0 0 0-.061-.921l-.888-.164a1.112 1.112 0 0 1 0-.725h3.676c.424.006.848-.017 1.268-.071.227-.025.45-.078.664-.159l.164.23-.351 2.83a.979.979 0 0 1-.79 0v-1.821a8.049 8.049 0 0 0-.521-.093c-.18-.025-.353-.045-.522-.061a4.525 4.525 0 0 0-.466-.016 1.79 1.79 0 0 0-.357.039 8.778 8.778 0 0 0-.099 1.212c-.007.435-.01.905-.011 1.409 0 .147.002.321.006.522l.011.663c.004.242.013.497.028.767.014.271.033.542.054.813l1.372.12c.088.249.088.52 0 .768h-4.192zm8.582-4.001c-.002.419.062.835.191 1.234.119.372.301.721.538 1.031.221.288.497.529.813.708.309.175.659.266 1.015.263.11 0 .205-.004.285-.011a1.615 1.615 0 0 0 .615-.176c.223-.232.391-.512.493-.817.165-.496.24-1.018.22-1.541a3.512 3.512 0 0 0-.203-1.206 3.248 3.248 0 0 0-.549-.977 2.561 2.561 0 0 0-.806-.653 2.163 2.163 0 0 0-.988-.236 1.71 1.71 0 0 0-.955.231 1.754 1.754 0 0 0-.504.856 4.56 4.56 0 0 0-.165 1.294zm5.937.077a4.25 4.25 0 0 1-.406 1.947 3.924 3.924 0 0 1-1.02 1.289c-.395.32-.848.562-1.335.712-.434.14-.887.214-1.344.22a3.994 3.994 0 0 1-1.415-.247 3.236 3.236 0 0 1-1.91-1.853 4.411 4.411 0 0 1 .099-3.307c.232-.484.567-.911.982-1.251a4.14 4.14 0 0 1 1.378-.735c.5-.159 1.022-.24 1.547-.241.423.001.843.077 1.24.225.404.147.777.37 1.098.657.332.304.599.672.784 1.081.21.473.313.986.302 1.503m4.093-.006a2.82 2.82 0 0 1-.066.483c-.033.15-.081.297-.142.438a1.336 1.336 0 0 1-.209.335.442.442 0 0 1-.263.159l-2.14.373-.209-.242a2.843 2.843 0 0 1 .192-.91c.047-.12.116-.229.203-.324a.464.464 0 0 1 .263-.148l2.196-.384.175.22zm-22.661 9.899l-.318 2.764a.803.803 0 0 1-.68 0l-.132-1.59a2.242 2.242 0 0 0-.604-.219 3.683 3.683 0 0 0-.856-.089 3.618 3.618 0 0 0-.681.055 2.485 2.485 0 0 0-.493.143 1.994 1.994 0 0 0-.67.806 3.12 3.12 0 0 0-.214.653 3.922 3.922 0 0 0-.082.844c-.003.405.062.807.192 1.19.121.359.314.689.565.971.255.283.568.507.917.658.39.167.81.249 1.234.241.284.004.566-.04.834-.131a3.43 3.43 0 0 0 .626-.285c.186.195.292.454.296.724a4.418 4.418 0 0 1-.554.258 7.272 7.272 0 0 1-1.509.383c-.272.04-.548.061-.823.061a3.945 3.945 0 0 1-1.339-.231 3.34 3.34 0 0 1-1.948-1.799 3.594 3.594 0 0 1-.302-1.513 4.738 4.738 0 0 1 .291-1.717c.179-.478.462-.911.828-1.267.374-.352.82-.62 1.307-.784a5.156 5.156 0 0 1 2.184-.242c.182.019.371.032.564.039.194.007.389.004.582-.011.178-.011.354-.048.521-.109l.264.197zm8.702.044c.088.248.088.519 0 .767l-.515.121a.49.49 0 0 0-.231.115.672.672 0 0 0-.137.357c-.041.27-.065.543-.071.817a36.27 36.27 0 0 0-.022 1.486v.691c0 .263.002.523.005.779l.011.697a2.99 2.99 0 0 0 .028.433l.812.12c.05.122.073.253.066.384-.008.13-.03.259-.066.385h-3.348a1.117 1.117 0 0 1-.01-.769l.34-.12a.688.688 0 0 0 .197-.121.653.653 0 0 0 .149-.323c.05-.242.079-.488.087-.735.019-.325.028-.78.028-1.366a68.642 68.642 0 0 0-.022-1.525 39.48 39.48 0 0 0-.028-.822c-.011-.249-.02-.41-.027-.483h-1.591a18.1 18.1 0 0 1-.258 3.027c-.078.451-.186.897-.324 1.333a4.854 4.854 0 0 1-.477 1.075 2.445 2.445 0 0 1-.647.719c-.245.175-.54.267-.84.263a.954.954 0 0 1-.516-.137 1.07 1.07 0 0 1-.351-.351 1.16 1.16 0 0 1-.165-.478 1.032 1.032 0 0 1 .06-.504c.068-.169.178-.318.318-.433a1.32 1.32 0 0 1 .599-.269l.702.439a.897.897 0 0 0 .406-.406c.149-.28.254-.582.313-.894.094-.465.151-.936.17-1.41.029-.555.026-1.21-.011-1.963l-1.207-.12a1.182 1.182 0 0 1 0-.779h6.573zm3.085 3.148c-.003.419.062.835.191 1.234.119.372.3.721.538 1.031.221.288.497.528.813.707.309.175.659.266 1.015.263.109 0 .205-.003.284-.01a1.844 1.844 0 0 0 .412-.088c.07-.025.138-.054.203-.088.223-.233.392-.512.494-.817.165-.497.24-1.019.22-1.541a3.542 3.542 0 0 0-.203-1.207 3.243 3.243 0 0 0-.549-.976 2.552 2.552 0 0 0-.807-.653 2.13 2.13 0 0 0-.987-.236 1.7 1.7 0 0 0-.955.231 1.76 1.76 0 0 0-.505.856 4.56 4.56 0 0 0-.164 1.294zm5.937.077a4.238 4.238 0 0 1-.407 1.947 3.885 3.885 0 0 1-1.02 1.288 3.973 3.973 0 0 1-1.334.713c-.434.14-.887.214-1.344.22a4.003 4.003 0 0 1-1.416-.247 3.33 3.33 0 0 1-1.146-.713 3.24 3.24 0 0 1-.763-1.141 4.407 4.407 0 0 1 .099-3.307 3.67 3.67 0 0 1 .982-1.25c.408-.331.876-.58 1.377-.735a5.15 5.15 0 0 1 1.548-.242c.423.002.843.078 1.239.225.405.147.778.371 1.098.658.332.304.599.671.785 1.081.21.473.313.986.302 1.503zm4.455.68h-.198a1.27 1.27 0 0 0-.23.021v.587a21.194 21.194 0 0 0 .038 1.217c.011.195.023.368.039.521.256.023.479.035.669.039.2.002.399-.021.593-.071a.987.987 0 0 0 .455-.45c.123-.229.185-.486.181-.745a1.082 1.082 0 0 0-.131-.56.927.927 0 0 0-.352-.34 1.586 1.586 0 0 0-.499-.17 3.155 3.155 0 0 0-.565-.049zm-.363-3.215c-.014.161-.025.346-.033.554-.007.208-.012.423-.016.642l-.011.653c-.004.215-.006.403-.005.564.127.015.255.02.383.017.11-.003.209-.005.297-.005a.946.946 0 0 0 .73-.291c.192-.232.288-.528.269-.828a1.284 1.284 0 0 0-.346-.976 1.557 1.557 0 0 0-1.103-.33h-.165zm-1.766 3.006v-.949a42.038 42.038 0 0 0-.022-1.36 95.494 95.494 0 0 1-.022-.565l-.439.044-.44.044a1.3 1.3 0 0 1-.093-.373 1.21 1.21 0 0 1 .039-.406l1.196-.153c.161-.023.366-.045.615-.067a53.194 53.194 0 0 1 1.498-.104c.237-.011.426-.016.565-.016.095 0 .216.005.362.016.159.013.316.037.471.072.176.039.347.096.511.17.171.076.327.182.461.312.143.143.257.313.335.499.092.228.137.473.131.719a1.542 1.542 0 0 1-.933 1.464 2.251 2.251 0 0 1-.526.16v.065c.227-.001.452.04.664.121.202.076.388.19.548.334.157.142.284.313.374.505.091.194.138.405.137.62.015.37-.064.738-.231 1.069a1.854 1.854 0 0 1-.608.658c-.262.169-.552.29-.857.357a7.057 7.057 0 0 1-.971.153c-.183.015-.381.026-.592.033a34.68 34.68 0 0 1-1.186.022h-1.986a1.67 1.67 0 0 1-.066-.384.786.786 0 0 1 .077-.384l.625-.109a.253.253 0 0 0 .165-.083.704.704 0 0 0 .11-.323c.037-.253.059-.507.066-.762.014-.341.021-.807.022-1.399"/></g><defs><clipPath id="clip0"><path fill="#fff" d="M0 0h247v247H0z"/></clipPath></defs></svg>