<svg width="30" height="30" fill="none" xmlns="http://www.w3.org/2000/svg"><path d="M1.926 19.098l1.837 5.188 1.827-5.188h1.936v7.153H6.047v-1.955l.148-3.375-1.931 5.33H3.252l-1.926-5.325.148 3.37v1.955H0v-7.153h1.926zm11.19 4.053h-2.83v1.916h3.321v1.184H8.813v-7.153h4.784v1.194h-3.31v1.705h2.83v1.154zm7.177 3.099H18.82v-3.065h-2.873v3.066h-1.474v-7.153h1.474v2.899h2.873v-2.899h1.474v7.153zM30 22.837c0 .704-.124 1.321-.373 1.852-.25.53-.606.94-1.071 1.228-.462.288-.992.432-1.592.432a3.046 3.046 0 0 1-1.474-.354 2.832 2.832 0 0 1-1.056-1.026c-.268-.446-.434-.966-.496-1.563h-.82v2.845h-1.474v-7.153h1.474v3.164h.796c.029-.645.171-1.215.427-1.71a2.816 2.816 0 0 1 1.066-1.144A2.96 2.96 0 0 1 26.954 19c.596 0 1.125.144 1.587.432.465.285.824.696 1.076 1.233.255.534.383 1.151.383 1.852v.32zm-1.493-.325c0-.75-.135-1.32-.403-1.71-.269-.389-.652-.584-1.15-.584-.494 0-.876.194-1.144.58-.269.383-.405.946-.408 1.69v.349c0 .73.134 1.297.403 1.7.268.402.655.604 1.16.604.494 0 .873-.194 1.139-.58.265-.39.4-.956.403-1.7v-.349zM30 6.833V3.5H0v3.333h30zm0 8.334H0v-3.334h30v3.334z" fill="#000"/></svg>