<svg width="17" height="16" fill="none" xmlns="http://www.w3.org/2000/svg"><path d="M7.089 12.637c-1.31 1.22-2.545 1.829-3.703 1.829-.884 0-1.615-.366-2.194-1.097-.61-.732-.915-1.661-.915-2.789 0-1.432.534-2.88 1.6-4.343 1.067-1.462 2.56-2.819 4.48-4.068l1.737 1.188.046.778c-.853.67-1.524 1.417-2.011 2.24-.518.853-.777 1.66-.777 2.422 0 .61.167 1.204.502 1.783a3.692 3.692 0 0 0 1.326 1.417l-.091.64zm8.137 0c-1.31 1.22-2.545 1.829-3.703 1.829-.884 0-1.615-.366-2.194-1.097-.61-.732-.915-1.661-.915-2.789 0-1.432.534-2.88 1.6-4.343 1.067-1.462 2.56-2.819 4.48-4.068l1.738 1.188.045.778c-.853.67-1.524 1.417-2.011 2.24-.518.853-.777 1.66-.777 2.422 0 .61.167 1.204.503 1.783a3.693 3.693 0 0 0 1.325 1.417l-.091.64z" fill="#9D1A18"/></svg>