<svg width="17" height="16" viewBox="0 0 17 16" fill="none" xmlns="http://www.w3.org/2000/svg">
<path d="M7.08877 12.6374C5.7783 13.8564 4.54401 14.466 3.38591 14.466C2.50211 14.466 1.77068 14.1003 1.19163 13.3688C0.582107 12.6374 0.277344 11.7079 0.277344 10.5803C0.277344 9.14788 0.810678 7.70026 1.87734 6.2374C2.94401 4.77454 4.43734 3.41835 6.35734 2.16883L8.09449 3.3574L8.1402 4.13454C7.28687 4.80502 6.61639 5.55169 6.12877 6.37454C5.61068 7.22788 5.35163 8.0355 5.35163 8.7974C5.35163 9.40692 5.51925 10.0012 5.85449 10.5803C6.15925 11.1593 6.60115 11.6317 7.1802 11.9974L7.08877 12.6374ZM15.2259 12.6374C13.9154 13.8564 12.6812 14.466 11.5231 14.466C10.6392 14.466 9.90782 14.1003 9.32877 13.3688C8.71925 12.6374 8.41449 11.7079 8.41449 10.5803C8.41449 9.14788 8.94782 7.70026 10.0145 6.2374C11.0812 4.77454 12.5745 3.41835 14.4945 2.16883L16.2316 3.3574L16.2773 4.13454C15.424 4.80502 14.7535 5.55169 14.2659 6.37454C13.7478 7.22788 13.4888 8.0355 13.4888 8.7974C13.4888 9.40692 13.6564 10.0012 13.9916 10.5803C14.2964 11.1593 14.7383 11.6317 15.3173 11.9974L15.2259 12.6374Z" fill="#9D1A18"/>
</svg>
