<svg width="30" height="30" viewBox="0 0 30 30" fill="none" xmlns="http://www.w3.org/2000/svg">
<path d="M1.92566 19.0982L3.7629 24.2857L5.59031 19.0982H7.52579V26.2507H6.04716V24.2956L6.19453 20.9207L4.26396 26.2507H3.25201L1.32635 20.9257L1.47372 24.2956V26.2507H0V19.0982H1.92566Z" fill="black"/>
<path d="M13.1161 23.151H10.2866V25.0668H13.6073V26.2507H8.81284V19.0982H13.5975V20.292H10.2866V21.9966H13.1161V23.151Z" fill="black"/>
<path d="M20.2931 26.2507H18.8194V23.1854H15.9456V26.2507H14.4719V19.0982H15.9456V21.9966H18.8194V19.0982H20.2931V26.2507Z" fill="black"/>
<path d="M30 22.8366C30 23.5407 29.8756 24.158 29.6267 24.6886C29.3778 25.2191 29.0208 25.6285 28.5558 25.9167C28.094 26.2048 27.5635 26.3489 26.9641 26.3489C26.4172 26.3489 25.926 26.231 25.4904 25.9953C25.0581 25.7562 24.7061 25.414 24.4343 24.9686C24.1657 24.5232 24.0003 24.0025 23.9381 23.4064H23.1177V26.2507H21.644V19.0982H23.1177V22.2618H23.9135C23.943 21.6167 24.0855 21.0468 24.3409 20.5523C24.5996 20.0578 24.955 19.6763 25.4069 19.4077C25.8621 19.1359 26.3779 19 26.9543 19C27.5504 19 28.0793 19.1441 28.541 19.4323C29.0061 19.7172 29.3647 20.1282 29.6168 20.6653C29.8723 21.1991 30 21.8164 30 22.5173V22.8366ZM28.5066 22.5124C28.5066 21.7624 28.3724 21.1926 28.1038 20.8028C27.8353 20.4131 27.4521 20.2183 26.9543 20.2183C26.4598 20.2183 26.0783 20.4115 25.8097 20.7979C25.5412 21.1811 25.4053 21.7444 25.402 22.4878V22.8366C25.402 23.5669 25.5363 24.1335 25.8048 24.5363C26.0734 24.9391 26.4598 25.1405 26.9641 25.1405C27.4587 25.1405 27.8385 24.9473 28.1038 24.5608C28.3691 24.1711 28.5034 23.6046 28.5066 22.8611V22.5124Z" fill="black"/>
<path d="M30 6.83333V3.5H0V6.83333H30Z" fill="black"/>
<path d="M30 15.1667H0V11.8333H30V15.1667Z" fill="black"/>
</svg>
