<svg width="16" height="16" viewBox="0 0 16 16" fill="none" xmlns="http://www.w3.org/2000/svg">
<path d="M6.41494 12.8L6.50221 12.1123C6.79312 12.0494 7.0016 11.9505 7.12766 11.8157C7.25372 11.6719 7.31675 11.4831 7.31675 11.2494V8.05388C7.31675 7.79321 7.27312 7.60445 7.18585 7.48759C7.09857 7.37074 6.95312 7.31231 6.74948 7.31231C6.6816 7.31231 6.60403 7.3213 6.51675 7.33928C6.43918 7.35725 6.40039 7.36624 6.40039 7.36624L6.45857 6.74602C6.74948 6.70107 7.03554 6.65613 7.31675 6.61119C7.59797 6.56624 7.85494 6.5213 8.08766 6.47636C8.32039 6.43141 8.50463 6.39546 8.64039 6.36849C8.78585 6.34152 8.85857 6.32804 8.85857 6.32804L8.96039 6.51681C8.91191 6.60669 8.86342 6.79995 8.81494 7.09658C8.77615 7.39321 8.74221 7.76175 8.71312 8.2022C8.68403 8.63366 8.65978 9.11456 8.64039 9.64489C8.63069 10.1662 8.62584 10.7101 8.62584 11.2764C8.62584 11.5101 8.65978 11.6809 8.72766 11.7887C8.80524 11.8966 8.9313 11.9505 9.10584 11.9505C9.18342 11.9505 9.28039 11.946 9.39675 11.937C9.51312 11.928 9.5713 11.9235 9.5713 11.9235L9.60039 11.991L9.46948 12.6786C9.46948 12.6786 9.421 12.6741 9.32403 12.6651C9.23675 12.6651 9.12039 12.6606 8.97494 12.6516C8.82948 12.6516 8.67433 12.6471 8.50948 12.6382C8.34463 12.6382 8.18948 12.6382 8.04403 12.6382C7.821 12.6382 7.58342 12.6516 7.3313 12.6786C7.07918 12.7056 6.861 12.7325 6.67675 12.7595C6.50221 12.7865 6.41494 12.8 6.41494 12.8ZM7.86948 4.93928C7.58827 4.93928 7.37494 4.85838 7.22948 4.69658C7.09372 4.53478 7.02585 4.34602 7.02585 4.13029C7.02585 3.86961 7.11797 3.64939 7.30221 3.46961C7.48645 3.28984 7.72403 3.19995 8.01494 3.19995C8.28645 3.19995 8.49494 3.28085 8.64039 3.44265C8.78585 3.59546 8.85857 3.78422 8.85857 4.00894C8.85857 4.26961 8.76645 4.48984 8.58221 4.66961C8.40766 4.84939 8.17009 4.93928 7.86948 4.93928Z" fill="#9D1A18"/>
<circle cx="8" cy="8" r="7.375" stroke="#9D1A18" stroke-width="1.25"/>
</svg>
