<svg width="8" height="8" viewBox="0 0 8 8" fill="none" xmlns="http://www.w3.org/2000/svg">
<path fill-rule="evenodd" clip-rule="evenodd" d="M7.53556 0.535557C7.35805 0.358046 7.07024 0.358046 6.89273 0.535557L4.00009 3.4282L1.10736 0.535467C0.929846 0.357956 0.642044 0.357956 0.464533 0.535467C0.287022 0.712978 0.287021 1.00078 0.464532 1.17829L3.35727 4.07103L0.464489 6.9638C0.286978 7.14131 0.286979 7.42911 0.46449 7.60663C0.642001 7.78414 0.929803 7.78414 1.10731 7.60663L4.00009 4.71385L6.89278 7.60654C7.07029 7.78405 7.35809 7.78405 7.5356 7.60654C7.71311 7.42903 7.71311 7.14122 7.5356 6.96371L4.64291 4.07103L7.53556 1.17838C7.71307 1.00087 7.71307 0.713069 7.53556 0.535557Z" fill="white"/>
</svg>
