<svg width="26" height="21" viewBox="0 0 26 21" fill="none" xmlns="http://www.w3.org/2000/svg">
<path d="M25.2027 3.01443C24.3048 3.41267 23.3397 3.68181 22.3271 3.80283C23.3606 3.18317 24.1547 2.20197 24.5285 1.03273C23.5609 1.60657 22.4895 2.02323 21.3489 2.24772C20.4357 1.27463 19.1345 0.666656 17.6944 0.666656C14.9292 0.666656 12.6873 2.90837 12.6873 5.67346C12.6873 6.06587 12.7316 6.44803 12.817 6.81452C8.65572 6.60569 4.96633 4.61236 2.49689 1.58308C2.06588 2.32256 1.81896 3.18264 1.81896 4.10026C1.81896 5.83737 2.70287 7.36989 4.04639 8.26784C3.22571 8.24171 2.45357 8.01654 1.77858 7.64153C1.7781 7.66245 1.7781 7.68334 1.7781 7.70446C1.7781 10.1304 3.504 12.154 5.79447 12.614C5.37436 12.7285 4.93202 12.7897 4.47538 12.7897C4.15275 12.7897 3.83909 12.7582 3.53332 12.6999C4.1705 14.6889 6.01957 16.1367 8.21058 16.1769C6.49701 17.52 4.3381 18.3204 1.99224 18.3204C1.58809 18.3204 1.18955 18.2966 0.797852 18.2503C3.01365 19.671 5.64551 20.5 8.47304 20.5C17.6826 20.5 22.7188 12.8706 22.7188 6.25403C22.7188 6.03699 22.7139 5.82105 22.7043 5.60626C23.6826 4.90033 24.5315 4.01851 25.2027 3.01443Z" fill="black"/>
</svg>
